<svg version="1.1" xmlns="http://www.w3.org/2000/svg" viewBox="0 0 1836.3194838373613 842.1155810713512" width="1836.3194838373613" height="842.1155810713512">
  <!-- svg-source:excalidraw -->
  
  <defs>
    <style class="style-fonts">
      @font-face {
        font-family: "Virgil";
        src: url("https://excalidraw.com/Virgil.woff2");
      }
      @font-face {
        font-family: "Cascadia";
        src: url("https://excalidraw.com/Cascadia.woff2");
      }
      @font-face {
        font-family: "Assistant";
        src: url("https://excalidraw.com/Assistant-Regular.woff2");
      }
    </style>
    <clipPath id="FUsgEwU9vnGKQ3MNN78x0">
            <rect transform="translate(10 34.50668963382327) rotate(0 0.5 0.5)" width="1" height="1">
          </rect>
        </clipPath>
  </defs>
  <rect x="0" y="0" width="1836.3194838373613" height="842.1155810713512" fill="#ffffff"></rect><g stroke-linecap="round" transform="translate(56.558441558442155 234.3368520378953) rotate(0 385 206)"><path d="M-0.26 -0.72 L771.28 0.81 L771.39 413.3 L0.88 410.37" stroke="none" stroke-width="0" fill="#e7f5ff"></path><path d="M0 0 C247.83 -0.93, 496.59 -1.88, 770 0 M0 0 C211.85 2.92, 423.15 2.84, 770 0 M770 0 C771.53 152.5, 771.23 304.01, 770 412 M770 0 C769.71 94.63, 769.72 190.2, 770 412 M770 412 C542.66 408.55, 313.57 409.38, 0 412 M770 412 C470.02 412.61, 170.5 412.59, 0 412 M0 412 C-0.58 253.99, -0.67 95.72, 0 0 M0 412 C-1.73 268.28, -1.72 124.93, 0 0" stroke="#1971c2" stroke-width="2" fill="none"></path></g><g transform="translate(61.558441558442155 551.3368520378954) rotate(0 73.38333129882812 45)"><text x="0" y="0" font-family="Virgil, Segoe UI Emoji" font-size="36px" fill="#1e1e1e" text-anchor="start" style="white-space: pre;" direction="ltr" dominant-baseline="text-before-edge">EDGAR </text><text x="0" y="45" font-family="Virgil, Segoe UI Emoji" font-size="36px" fill="#1e1e1e" text-anchor="start" style="white-space: pre;" direction="ltr" dominant-baseline="text-before-edge">(leader)</text></g><g stroke-linecap="round" transform="translate(339.2943722943728 729.2983753551531) rotate(0 70 36)"><path d="M18 0 C51.72 -1.47, 84.67 -1.25, 122 0 C131.87 0.44, 138.53 2.8, 140 18 C140.1 32.95, 139.14 48.37, 140 54 C136.8 67.26, 130.97 75.42, 122 72 C94.88 72.07, 77.34 73.28, 18 72 C6.37 69.66, 0.34 67.31, 0 54 C1.79 38.74, 3.1 27.87, 0 18 C-2.91 3.98, 9.43 3.37, 18 0" stroke="none" stroke-width="0" fill="#ffc9c9"></path><path d="M18 0 C57.87 0.3, 97.01 1.24, 122 0 M18 0 C55.97 0.16, 92.66 -0.2, 122 0 M122 0 C134.45 -0.12, 139.07 4.61, 140 18 M122 0 C133.59 -1.85, 140.47 4.21, 140 18 M140 18 C138.64 27.84, 141.88 39.41, 140 54 M140 18 C139.39 27.76, 139.91 36.87, 140 54 M140 54 C141.79 65.48, 135.7 73.21, 122 72 M140 54 C138.62 67.66, 135.37 73.46, 122 72 M122 72 C81.8 70.79, 40.04 70.8, 18 72 M122 72 C81.09 72.03, 39.6 72.28, 18 72 M18 72 C6.88 70.37, -1.01 65.37, 0 54 M18 72 C5.5 69.95, -0.85 63.84, 0 54 M0 54 C-0.34 39.83, -0.09 27.4, 0 18 M0 54 C0.53 46.92, 0.14 38.73, 0 18 M0 18 C-0.59 7.78, 6.88 -1.95, 18 0 M0 18 C-0.34 4.6, 8.05 -0.35, 18 0" stroke="#1971c2" stroke-width="1" fill="none"></path></g><g transform="translate(388.9743802289431 752.7983753551531) rotate(0 20.319992065429688 12.5)"><text x="20.319992065429688" y="0" font-family="Virgil, Segoe UI Emoji" font-size="20px" fill="#1e1e1e" text-anchor="middle" style="white-space: pre;" direction="ltr" dominant-baseline="text-before-edge">ECU</text></g><g stroke-linecap="round" transform="translate(241.91774891774912 473.09875679980007) rotate(0 70 36)"><path d="M18 0 C44.98 0.7, 74.75 -2.94, 122 0 C136.74 1.62, 136.95 5.81, 140 18 C136.59 31.48, 136.76 45.85, 140 54 C137.5 65.92, 132.87 68.85, 122 72 C89.26 70.64, 56.13 74.28, 18 72 C7.24 69.72, 2.72 67.38, 0 54 C-3.4 44.41, 2.94 42.22, 0 18 C-0.53 3.12, 3.85 -2.14, 18 0" stroke="none" stroke-width="0" fill="#b2f2bb"></path><path d="M18 0 C50.3 -1.32, 81.07 0.91, 122 0 M18 0 C55.4 -0.28, 91.89 -0.91, 122 0 M122 0 C133.64 -1.61, 140.41 4.44, 140 18 M122 0 C134.52 0.35, 139.91 4.37, 140 18 M140 18 C139.63 25.87, 142.12 31.91, 140 54 M140 18 C140.85 29.35, 140.8 41.82, 140 54 M140 54 C138.8 67.45, 135.2 73.27, 122 72 M140 54 C142.2 67.13, 135.27 73.07, 122 72 M122 72 C102.04 70.82, 77.38 72.36, 18 72 M122 72 C87.02 71.86, 50.65 72.36, 18 72 M18 72 C5.56 70.21, -0.74 64.12, 0 54 M18 72 C8.01 72.59, 2.13 65.71, 0 54 M0 54 C-1.96 43.49, 0.03 34.23, 0 18 M0 54 C-0.34 43.39, 0.4 30.03, 0 18 M0 18 C-0.3 4.79, 7.78 -0.31, 18 0 M0 18 C0.09 5.52, 6.92 1.35, 18 0" stroke="#1971c2" stroke-width="1" fill="none"></path></g><g transform="translate(256.70108174245615 484.09875679980007) rotate(0 55.21666717529297 25)"><text x="55.21666717529297" y="0" font-family="Virgil, Segoe UI Emoji" font-size="20px" fill="#1e1e1e" text-anchor="middle" style="white-space: pre;" direction="ltr" dominant-baseline="text-before-edge">openDuT </text><text x="55.21666717529297" y="25" font-family="Virgil, Segoe UI Emoji" font-size="20px" fill="#1e1e1e" text-anchor="middle" style="white-space: pre;" direction="ltr" dominant-baseline="text-before-edge">ETH Bridge</text></g><g stroke-linecap="round" transform="translate(341.11224518986546 336.47738101108564) rotate(0 70 36)"><path d="M18 0 C53.22 3.29, 79.9 1.47, 122 0 C135.41 -1.15, 143.29 2.8, 140 18 C136.95 29.98, 138.32 38.97, 140 54 C140.66 69.29, 135.87 72.37, 122 72 C98.79 70.41, 75.82 74.07, 18 72 C2.78 74.69, -2.06 63.09, 0 54 C-1.15 42.34, -2.77 34.3, 0 18 C3.2 6.11, 7.7 -2.67, 18 0" stroke="none" stroke-width="0" fill="#b2f2bb"></path><path d="M18 0 C45.99 -0.49, 72.11 -0.28, 122 0 M18 0 C48.4 -0.08, 79.36 -0.06, 122 0 M122 0 C134.45 0.3, 139.92 4.58, 140 18 M122 0 C131.96 2.11, 137.92 5.19, 140 18 M140 18 C140.77 28.99, 139.91 42.33, 140 54 M140 18 C139.71 28.59, 140.9 38.37, 140 54 M140 54 C141.91 66.98, 135.1 72.93, 122 72 M140 54 C137.95 66.36, 131.96 74.29, 122 72 M122 72 C92.95 74.06, 63.57 73.55, 18 72 M122 72 C99.08 70.78, 76.22 70.74, 18 72 M18 72 C7.75 72.51, 1.85 65.75, 0 54 M18 72 C5.74 72, 1.48 63.75, 0 54 M0 54 C0.38 43.64, -1.47 32.21, 0 18 M0 54 C-0.31 39.39, 0.73 25.84, 0 18 M0 18 C0.08 5.58, 6.8 1.18, 18 0 M0 18 C-0.46 8.22, 5.68 -1.36, 18 0" stroke="#1971c2" stroke-width="1" fill="none"></path></g><g transform="translate(354.77227936955296 359.97738101108564) rotate(0 56.3399658203125 12.5)"><text x="56.3399658203125" y="0" font-family="Virgil, Segoe UI Emoji" font-size="20px" fill="#1e1e1e" text-anchor="middle" style="white-space: pre;" direction="ltr" dominant-baseline="text-before-edge">GRE Bridge</text></g><g stroke-linecap="round" transform="translate(147.63203463203445 333.09875679980024) rotate(0 70 36)"><path d="M18 0 C55.31 -1.05, 93.08 -3.1, 122 0 C135.26 -3.03, 143.42 3.5, 140 18 C140.46 32.01, 141.67 39.81, 140 54 C137.66 66.34, 135.31 73.24, 122 72 C94.15 75.4, 70.69 69.81, 18 72 C3.98 75.43, 3.37 65.47, 0 54 C3.59 46.2, 2.08 35.5, 0 18 C-2.61 7.37, 7.74 0.77, 18 0" stroke="none" stroke-width="0" fill="#b2f2bb"></path><path d="M18 0 C50.32 -1.17, 81.48 -0.59, 122 0 M18 0 C41.05 0.96, 63.62 0.1, 122 0 M122 0 C132.23 1.83, 138.19 5.3, 140 18 M122 0 C134.3 2.06, 138.49 6.52, 140 18 M140 18 C139.41 30, 141.14 37.4, 140 54 M140 18 C141.17 31.9, 140.77 45.28, 140 54 M140 54 C138.22 66.32, 132.22 73.99, 122 72 M140 54 C139.7 65.17, 135.47 72.93, 122 72 M122 72 C81.93 71.45, 44.5 72.02, 18 72 M122 72 C100.96 71.28, 79.1 70.9, 18 72 M18 72 C5.77 72, 1.29 64.04, 0 54 M18 72 C5.87 72.04, 1.17 66.45, 0 54 M0 54 C2.04 43.65, -1.69 31.24, 0 18 M0 54 C-0.28 45.18, 0.08 37.36, 0 18 M0 18 C-0.4 7.93, 5.72 -1.18, 18 0 M0 18 C0.28 5.06, 3.96 1.75, 18 0" stroke="#1971c2" stroke-width="1" fill="none"></path></g><g transform="translate(161.29206881172195 356.59875679980024) rotate(0 56.3399658203125 12.5)"><text x="56.3399658203125" y="0" font-family="Virgil, Segoe UI Emoji" font-size="20px" fill="#1e1e1e" text-anchor="middle" style="white-space: pre;" direction="ltr" dominant-baseline="text-before-edge">GRE Bridge</text></g><g stroke-linecap="round" transform="translate(155.58441558441586 724.797927753067) rotate(0 70 36)"><path d="M18 0 C47.14 -1.37, 77.17 -0.84, 122 0 C133.92 -1.13, 136.85 6.66, 140 18 C138 32.43, 141.65 47.41, 140 54 C137.72 68.72, 135.38 68.78, 122 72 C81.02 73.91, 47.45 69.95, 18 72 C3.12 69.85, -2.14 69.2, 0 54 C-2.92 44.46, 1.43 32.94, 0 18 C-2.04 7.76, 8.57 1.02, 18 0" stroke="none" stroke-width="0" fill="#ffc9c9"></path><path d="M18 0 C42.73 0.59, 69.13 0.63, 122 0 M18 0 C49.88 1.65, 82.62 0.39, 122 0 M122 0 C134.26 1.79, 138.69 6.45, 140 18 M122 0 C133.68 -0.48, 142.06 5.41, 140 18 M140 18 C141.67 33.06, 141.49 47.64, 140 54 M140 18 C139.31 30.72, 139.31 44.13, 140 54 M140 54 C139.74 65.28, 135.28 72.81, 122 72 M140 54 C141.6 67.49, 135.02 70.12, 122 72 M122 72 C94.27 71.04, 68.24 73.52, 18 72 M122 72 C88.04 71.87, 54.94 70.89, 18 72 M18 72 C5.89 72.03, 1.02 66.39, 0 54 M18 72 C6.27 70.32, -0.68 68.05, 0 54 M0 54 C-0.86 43.39, 0.04 29.3, 0 18 M0 54 C-0.35 44.92, -0.28 33.32, 0 18 M0 18 C0.25 5.18, 4.22 1.52, 18 0 M0 18 C1.04 4.05, 5.88 0.9, 18 0" stroke="#1971c2" stroke-width="1" fill="none"></path></g><g transform="translate(177.95446410736508 735.797927753067) rotate(0 47.62995147705078 25)"><text x="47.62995147705078" y="0" font-family="Virgil, Segoe UI Emoji" font-size="20px" fill="#1e1e1e" text-anchor="middle" style="white-space: pre;" direction="ltr" dominant-baseline="text-before-edge">RestBus </text><text x="47.62995147705078" y="25" font-family="Virgil, Segoe UI Emoji" font-size="20px" fill="#1e1e1e" text-anchor="middle" style="white-space: pre;" direction="ltr" dominant-baseline="text-before-edge">Simulation</text></g><g stroke-linecap="round"><g transform="translate(215.67738960281122 716.9884039435433) rotate(0 35.95952791035347 -25.135299762347756)"><path d="M0 0 C23.73 -16.34, 45.05 -34.14, 71.92 -50.27 M0 0 C28.74 -18.54, 56.11 -38.89, 71.92 -50.27" stroke="#1e1e1e" stroke-width="2" fill="none"></path></g><g transform="translate(215.67738960281122 716.9884039435433) rotate(0 35.95952791035347 -25.135299762347756)"><path d="M1.02 0.39 L7.55 -14.56 L14.14 -1.04 L0.88 -1.95" stroke="none" stroke-width="0" fill="#1e1e1e" fill-rule="evenodd"></path><path d="M0 0 C2.67 -4.27, 3.72 -9.73, 7.31 -13.1 M0 0 C3.08 -4.43, 5.35 -10.06, 7.31 -13.1 M7.31 -13.1 C9.09 -9.14, 12.31 -8.04, 14.73 -2.82 M7.31 -13.1 C10.74 -9.01, 13.25 -5.19, 14.73 -2.82 M14.73 -2.82 C13.12 -2.55, 7.98 -0.8, 0 0 M14.73 -2.82 C10.07 -2.37, 4.34 -1.04, 0 0 M0 0 C0 0, 0 0, 0 0 M0 0 C0 0, 0 0, 0 0" stroke="#1e1e1e" stroke-width="2" fill="none"></path></g><g transform="translate(215.67738960281122 716.9884039435433) rotate(0 35.95952791035347 -25.135299762347756)"><path d="M72.94 -49.88 L64.87 -38.62 L56.6 -45.65 L72.8 -52.22" stroke="none" stroke-width="0" fill="#1e1e1e" fill-rule="evenodd"></path><path d="M71.92 -50.27 C69.71 -46.11, 66.09 -43.18, 64.63 -37.16 M71.92 -50.27 C69.04 -44.49, 65.6 -39.86, 64.63 -37.16 M64.63 -37.16 C62.2 -38.95, 61.17 -43.72, 57.19 -47.42 M64.63 -37.16 C62.41 -40.62, 59.38 -44.46, 57.19 -47.42 M57.19 -47.42 C61.79 -48.09, 62.87 -47.54, 71.92 -50.27 M57.19 -47.42 C62.52 -49.1, 66.82 -49.69, 71.92 -50.27 M71.92 -50.27 C71.92 -50.27, 71.92 -50.27, 71.92 -50.27 M71.92 -50.27 C71.92 -50.27, 71.92 -50.27, 71.92 -50.27" stroke="#1e1e1e" stroke-width="2" fill="none"></path></g></g><mask></mask><g stroke-linecap="round"><g transform="translate(336.9996153635782 665.1962528006061) rotate(0 37.45682031619572 26.79894347681062)"><path d="M0 0 C22.82 15.54, 50.22 32.78, 74.91 53.6 M0 0 C19.26 13.76, 39.63 27.53, 74.91 53.6" stroke="#1e1e1e" stroke-width="2" fill="none"></path></g><g transform="translate(336.9996153635782 665.1962528006061) rotate(0 37.45682031619572 26.79894347681062)"><path d="M0.24 -1.46 L14.2 4.24 L8.51 10.97 L-0.3 -1.21" stroke="none" stroke-width="0" fill="#1e1e1e" fill-rule="evenodd"></path><path d="M0 0 C3.71 -0.53, 10.92 0.24, 14.8 2.46 M0 0 C3.43 0.69, 7.74 1.02, 14.8 2.46 M14.8 2.46 C12.74 5.84, 10.1 11.43, 7.62 12.92 M14.8 2.46 C12.64 6.59, 9.12 10.2, 7.62 12.92 M7.62 12.92 C5.35 11.14, 4.88 8.49, 0 0 M7.62 12.92 C4.41 7.91, 1.84 2.76, 0 0 M0 0 C0 0, 0 0, 0 0 M0 0 C0 0, 0 0, 0 0" stroke="#1e1e1e" stroke-width="2" fill="none"></path></g><g transform="translate(336.9996153635782 665.1962528006061) rotate(0 37.45682031619572 26.79894347681062)"><path d="M75.15 52.14 L59.6 52.49 L68.54 38.52 L74.62 52.38" stroke="none" stroke-width="0" fill="#1e1e1e" fill-rule="evenodd"></path><path d="M74.91 53.6 C69.1 51.33, 66.79 50.38, 60.19 50.72 M74.91 53.6 C70.52 53.13, 67 52.05, 60.19 50.72 M60.19 50.72 C63.9 45.9, 66.96 43.42, 67.66 40.47 M60.19 50.72 C63.16 47.25, 64.96 43.33, 67.66 40.47 M67.66 40.47 C68.78 44.21, 71.46 47.07, 74.91 53.6 M67.66 40.47 C69.99 45.08, 72.85 49.44, 74.91 53.6 M74.91 53.6 C74.91 53.6, 74.91 53.6, 74.91 53.6 M74.91 53.6 C74.91 53.6, 74.91 53.6, 74.91 53.6" stroke="#1e1e1e" stroke-width="2" fill="none"></path></g></g><mask></mask><g stroke-linecap="round" transform="translate(862.9455874491363 235.34878283706135) rotate(0 224.7083203147026 205.11109375293694)"><path d="M-0.59 1.78 L450.3 -1.95 L449.12 409.01 L1.78 409.91" stroke="none" stroke-width="0" fill="#e7f5ff"></path><path d="M0 0 C134.01 1.05, 265.9 2.05, 449.42 0 M0 0 C174.99 -0.59, 350.55 -0.61, 449.42 0 M449.42 0 C451.58 158.64, 451.48 317.01, 449.42 410.22 M449.42 0 C450.17 143.27, 450.17 286.92, 449.42 410.22 M449.42 410.22 C320.76 412.29, 191.94 412.04, 0 410.22 M449.42 410.22 C351.2 409.11, 253.01 409.09, 0 410.22 M0 410.22 C-0.71 251.2, -0.57 93.13, 0 0 M0 410.22 C0.41 327.48, 0.19 244.12, 0 0" stroke="#1971c2" stroke-width="2" fill="none"></path></g><g transform="translate(1178.5955654808852 595.5709703429352) rotate(0 64.38333129882812 22.5)"><text x="128.76666259765625" y="0" font-family="Virgil, Segoe UI Emoji" font-size="36px" fill="#1e1e1e" text-anchor="end" style="white-space: pre;" direction="ltr" dominant-baseline="text-before-edge">EDGAR</text></g><g stroke-linecap="round" transform="translate(1143.3550784561862 725.4030949060041) rotate(0 70 36)"><path d="M18 0 C54.94 2.53, 92.43 -1.06, 122 0 C136.72 1.38, 136.78 8.69, 140 18 C142.9 30.11, 138.94 32.6, 140 54 C137.85 63.86, 137.2 72.11, 122 72 C87.28 72.38, 50.57 68.6, 18 72 C7.76 74.57, 1.02 66.89, 0 54 C-0.08 45.13, -1.28 34.28, 0 18 C-1.35 5.04, 8.91 2.83, 18 0" stroke="none" stroke-width="0" fill="#ffc9c9"></path><path d="M18 0 C41.59 -1.45, 62.04 -0.41, 122 0 M18 0 C47.89 0.88, 75.49 0.99, 122 0 M122 0 C135.2 1.27, 141.91 6.98, 140 18 M122 0 C135.27 1.07, 137.95 6.36, 140 18 M140 18 C139.64 26.88, 141.17 34.6, 140 54 M140 18 C139.65 30.82, 139.94 43.38, 140 54 M140 54 C139.26 64.12, 135.75 72.51, 122 72 M140 54 C142.13 65.71, 133.74 72, 122 72 M122 72 C84.15 72.96, 46.62 72.18, 18 72 M122 72 C98.83 71.95, 74.63 72.32, 18 72 M18 72 C7.78 71.69, 0.08 65.58, 0 54 M18 72 C6.92 73.35, -0.46 68.22, 0 54 M0 54 C-0.6 41.92, 1.73 34.3, 0 18 M0 54 C-0.3 47.17, -0.87 38.86, 0 18 M0 18 C-1.68 7.9, 4.61 -0.05, 18 0 M0 18 C-0.72 3.99, 6.42 2.1, 18 0" stroke="#1971c2" stroke-width="1" fill="none"></path></g><g transform="translate(1181.863411662363 748.9030949060041) rotate(0 31.491666793823242 12.5)"><text x="31.491666793823242" y="0" font-family="Virgil, Segoe UI Emoji" font-size="20px" fill="#1e1e1e" text-anchor="middle" style="white-space: pre;" direction="ltr" dominant-baseline="text-before-edge">Sensor</text></g><g stroke-linecap="round" transform="translate(1048.9437229437224 472.5273282283715) rotate(0 70 36)"><path d="M18 0 C55.72 2.57, 84.76 3.87, 122 0 C131.94 -2.91, 137.98 9.43, 140 18 C137.75 30.03, 143.1 46.45, 140 54 C141.7 63.33, 131.39 73.37, 122 72 C87.55 73.51, 50.59 71.83, 18 72 C3.82 73.43, 2.8 66.18, 0 54 C-1.17 42.49, 3.1 35.72, 0 18 C-2.84 6.82, 8.76 1.46, 18 0" stroke="none" stroke-width="0" fill="#b2f2bb"></path><path d="M18 0 C41.96 1.94, 66.22 1.85, 122 0 M18 0 C56.11 -0.12, 93.97 -0.26, 122 0 M122 0 C135.1 0.93, 138.22 6.32, 140 18 M122 0 C131.96 2.29, 139.7 5.17, 140 18 M140 18 C141.44 31.99, 138.51 43.2, 140 54 M140 18 C139.55 26.74, 140.79 37.6, 140 54 M140 54 C141.85 65.75, 133.77 72, 122 72 M140 54 C141.48 63.75, 133.87 72.04, 122 72 M122 72 C84.03 71.53, 50.77 73.01, 18 72 M122 72 C101.82 71.21, 79.9 71.16, 18 72 M18 72 C6.8 73.18, -0.4 67.93, 0 54 M18 72 C5.68 70.64, 0.28 65.06, 0 54 M0 54 C-1.97 46.29, 0.51 38.15, 0 18 M0 54 C-0.52 40.86, -0.37 25.8, 0 18 M0 18 C-0.63 4.25, 6.37 1.83, 18 0 M0 18 C1.19 6.24, 4.51 0.22, 18 0" stroke="#1971c2" stroke-width="1" fill="none"></path></g><g transform="translate(1063.7270557684294 483.5273282283715) rotate(0 55.21666717529297 25)"><text x="55.21666717529297" y="0" font-family="Virgil, Segoe UI Emoji" font-size="20px" fill="#1e1e1e" text-anchor="middle" style="white-space: pre;" direction="ltr" dominant-baseline="text-before-edge">openDuT </text><text x="55.21666717529297" y="25" font-family="Virgil, Segoe UI Emoji" font-size="20px" fill="#1e1e1e" text-anchor="middle" style="white-space: pre;" direction="ltr" dominant-baseline="text-before-edge">ETH Bridge</text></g><g stroke-linecap="round" transform="translate(1119.6103896103893 341.43209013313356) rotate(0 70 36)"><path d="M18 0 C51.13 -4.31, 86.37 2.03, 122 0 C137.37 -0.53, 137.12 3.85, 140 18 C142.27 23.99, 137.96 36.7, 140 54 C141.74 66.77, 131.96 73.76, 122 72 C81.2 73.89, 47.56 72.64, 18 72 C5.76 70.98, -2.48 64.65, 0 54 C-3.36 44.98, 2.24 35.77, 0 18 C-1.79 4.71, 8.27 2.4, 18 0" stroke="none" stroke-width="0" fill="#b2f2bb"></path><path d="M18 0 C59.74 -2.08, 100.5 0.31, 122 0 M18 0 C56.34 -0.04, 92.69 -0.35, 122 0 M122 0 C132.22 1.99, 139.74 5.28, 140 18 M122 0 C135.47 0.93, 141.6 7.49, 140 18 M140 18 C139.08 29.95, 137.92 42.04, 140 54 M140 18 C141.24 25.3, 140.2 32.85, 140 54 M140 54 C141.29 64.04, 133.89 72.03, 122 72 M140 54 C141.17 66.45, 134.27 70.32, 122 72 M122 72 C91.94 72.16, 64.55 74.24, 18 72 M122 72 C92.8 72.37, 62.6 72.75, 18 72 M18 72 C5.72 70.82, 0.25 65.18, 0 54 M18 72 C3.96 73.75, 1.04 64.05, 0 54 M0 54 C1.69 41.62, 0.56 31.11, 0 18 M0 54 C-0.06 38.91, 0.43 26.48, 0 18 M0 18 C1.04 6.21, 4.7 0.19, 18 0 M0 18 C0.84 6.79, 4.55 1.74, 18 0" stroke="#1971c2" stroke-width="1" fill="none"></path></g><g transform="translate(1133.2704237900768 364.93209013313356) rotate(0 56.3399658203125 12.5)"><text x="56.3399658203125" y="0" font-family="Virgil, Segoe UI Emoji" font-size="20px" fill="#1e1e1e" text-anchor="middle" style="white-space: pre;" direction="ltr" dominant-baseline="text-before-edge">GRE Bridge</text></g><g stroke-linecap="round" transform="translate(911.4364234375894 730.459774962101) rotate(0 70 36)"><path d="M18 0 C44.15 -2.31, 60.69 -3.93, 122 0 C131.86 3.2, 140.11 7.7, 140 18 C141.26 26.9, 137.49 36.03, 140 54 C142.57 67.02, 134.89 69.82, 122 72 C86.43 71.07, 48.86 70.74, 18 72 C5.04 74.91, 2.83 63.16, 0 54 C-2.29 41.09, 1.78 33.15, 0 18 C2.32 5.99, 7.44 1.32, 18 0" stroke="none" stroke-width="0" fill="#ffc9c9"></path><path d="M18 0 C44.24 1.29, 68.93 0.48, 122 0 M18 0 C53.16 0.83, 89.97 -0.52, 122 0 M122 0 C135.28 0.81, 141.39 7.3, 140 18 M122 0 C135.02 -1.88, 138.84 5.28, 140 18 M140 18 C137.8 29.76, 140.19 39.87, 140 54 M140 18 C140.6 27.37, 139.9 38.71, 140 54 M140 54 C141.02 66.39, 134.24 70.54, 122 72 M140 54 C139.32 68.05, 135.01 69.76, 122 72 M122 72 C92.03 73, 62.26 73.73, 18 72 M122 72 C84.54 72.41, 47.48 72.59, 18 72 M18 72 C4.22 73.52, 0.9 64.3, 0 54 M18 72 C5.88 72.9, -0.74 68.1, 0 54 M0 54 C1.77 45.01, -0.17 38.18, 0 18 M0 54 C0.45 46.45, -0.71 38.8, 0 18 M0 18 C0.73 6.69, 4.74 1.51, 18 0 M0 18 C0.88 3.94, 7.72 -1.32, 18 0" stroke="#1971c2" stroke-width="1" fill="none"></path></g><g transform="translate(961.1114226746499 753.959774962101) rotate(0 20.325000762939453 12.5)"><text x="20.325000762939453" y="0" font-family="Virgil, Segoe UI Emoji" font-size="20px" fill="#1e1e1e" text-anchor="middle" style="white-space: pre;" direction="ltr" dominant-baseline="text-before-edge">ECU</text></g><g stroke-linecap="round"><g transform="translate(985.1457085802278 722.6502511525773) rotate(0 33.61572284979616 -25.09193142145608)"><path d="M0 0 C27.28 -22, 53.26 -41.85, 67.23 -50.18 M0 0 C27.56 -19.4, 54.48 -39.21, 67.23 -50.18" stroke="#1e1e1e" stroke-width="2" fill="none"></path></g><g transform="translate(985.1457085802278 722.6502511525773) rotate(0 33.61572284979616 -25.09193142145608)"><path d="M0.9 -1.7 L6.79 -12.53 L14 -1.45 L-1.78 0.7" stroke="none" stroke-width="0" fill="#1e1e1e" fill-rule="evenodd"></path><path d="M0 0 C3.36 -6.64, 5.63 -11.91, 6.9 -13.32 M0 0 C3.25 -4.99, 6.05 -10.13, 6.9 -13.32 M6.9 -13.32 C9.09 -10.1, 11.01 -6.83, 14.64 -3.27 M6.9 -13.32 C9.17 -11.35, 10.11 -9.19, 14.64 -3.27 M14.64 -3.27 C9.3 -1.32, 4.23 -0.72, 0 0 M14.64 -3.27 C11.64 -3.13, 7.87 -2.11, 0 0 M0 0 C0 0, 0 0, 0 0 M0 0 C0 0, 0 0, 0 0" stroke="#1e1e1e" stroke-width="2" fill="none"></path></g><g transform="translate(985.1457085802278 722.6502511525773) rotate(0 33.61572284979616 -25.09193142145608)"><path d="M68.13 -51.88 L60.5 -35.94 L52.03 -44.78 L65.45 -49.48" stroke="none" stroke-width="0" fill="#1e1e1e" fill-rule="evenodd"></path><path d="M67.23 -50.18 C65.38 -46.16, 62.3 -40.83, 60.61 -36.72 M67.23 -50.18 C65.05 -44.53, 62.45 -38.97, 60.61 -36.72 M60.61 -36.72 C57.56 -40.44, 54.09 -44.03, 52.67 -46.6 M60.61 -36.72 C59.47 -38.82, 57.18 -40.78, 52.67 -46.6 M52.67 -46.6 C58.03 -47.13, 63.6 -49.02, 67.23 -50.18 M52.67 -46.6 C56.31 -48.28, 59.18 -48.81, 67.23 -50.18 M67.23 -50.18 C67.23 -50.18, 67.23 -50.18, 67.23 -50.18 M67.23 -50.18 C67.23 -50.18, 67.23 -50.18, 67.23 -50.18" stroke="#1e1e1e" stroke-width="2" fill="none"></path></g></g><mask></mask><g stroke-linecap="round"><g transform="translate(1150.792835271354 672.6248242291775) rotate(0 29.975961258409527 21.637017537950385)"><path d="M0 0 C21.8 14.12, 44.76 31, 59.95 43.27 M0 0 C16.81 11.83, 32.39 21.8, 59.95 43.27" stroke="#1e1e1e" stroke-width="2" fill="none"></path></g><g transform="translate(1150.792835271354 672.6248242291775) rotate(0 29.975961258409527 21.637017537950385)"><path d="M-0.11 0.79 L14.13 4.45 L5.71 13.7 L-1.68 1.9" stroke="none" stroke-width="0" fill="#1e1e1e" fill-rule="evenodd"></path><path d="M0 0 C5.49 -0.27, 11.99 1.8, 14.77 2.62 M0 0 C4.44 1.12, 8.15 0.71, 14.77 2.62 M14.77 2.62 C11.79 4.73, 9.91 8.89, 7.48 13 M14.77 2.62 C12.42 5.99, 10.53 8.75, 7.48 13 M7.48 13 C5.57 9.39, 1.98 4.94, 0 0 M7.48 13 C4.41 7.42, 2.27 2.7, 0 0 M0 0 C0 0, 0 0, 0 0 M0 0 C0 0, 0 0, 0 0" stroke="#1e1e1e" stroke-width="2" fill="none"></path></g><g transform="translate(1150.792835271354 672.6248242291775) rotate(0 29.975961258409527 21.637017537950385)"><path d="M59.84 44.06 L44.65 41.96 L51.15 30.72 L58.27 45.17" stroke="none" stroke-width="0" fill="#1e1e1e" fill-rule="evenodd"></path><path d="M59.95 43.27 C54.97 40.7, 51.02 40.72, 45.28 40.13 M59.95 43.27 C56.58 42.99, 52.52 41.06, 45.28 40.13 M45.28 40.13 C46.09 37.16, 47.94 36.21, 52.93 30.02 M45.28 40.13 C47.61 36.85, 50.58 32.94, 52.93 30.02 M52.93 30.02 C55.29 34.06, 55.97 37.34, 59.95 43.27 M52.93 30.02 C55.61 34.79, 59.12 40.28, 59.95 43.27 M59.95 43.27 C59.95 43.27, 59.95 43.27, 59.95 43.27 M59.95 43.27 C59.95 43.27, 59.95 43.27, 59.95 43.27" stroke="#1e1e1e" stroke-width="2" fill="none"></path></g></g><mask></mask><g stroke-linecap="round" transform="translate(1362.3194838373613 239.17511225219) rotate(0 232 203.91664062940538)"><path d="M-0.64 1.83 L462.22 0.7 L462.32 409.73 L-1.39 407.79" stroke="none" stroke-width="0" fill="#e7f5ff"></path><path d="M0 0 C98.85 1.78, 195.54 2.48, 464 0 M0 0 C158.24 -1.76, 315.84 -1.53, 464 0 M464 0 C460.95 114.4, 462.27 227.88, 464 407.83 M464 0 C464.1 116.66, 463.71 234.42, 464 407.83 M464 407.83 C300.45 407.82, 139.07 408.49, 0 407.83 M464 407.83 C370.4 406.47, 276 406.44, 0 407.83 M0 407.83 C-0.26 268.96, -1.98 130.53, 0 0 M0 407.83 C2.25 301.64, 1.97 196.6, 0 0" stroke="#1971c2" stroke-width="2" fill="none"></path></g><g transform="translate(1367.3194838373613 597.0083935110008) rotate(0 64.38333129882812 22.5)"><text x="0" y="0" font-family="Virgil, Segoe UI Emoji" font-size="36px" fill="#1e1e1e" text-anchor="start" style="white-space: pre;" direction="ltr" dominant-baseline="text-before-edge">EDGAR</text></g><g stroke-linecap="round" transform="translate(1540.9775502762086 719.0068402093412) rotate(0 70 42.5)"><path d="M21.25 0 C44.19 -2.88, 67.35 1.72, 118.75 0 C133.93 0.89, 137.82 8.51, 140 21.25 C139.02 34.83, 138.69 52.41, 140 63.75 C142.91 80.75, 130.08 85.82, 118.75 85 C80.74 86.4, 47.7 86.44, 21.25 85 C7.08 86.44, 1.32 75.15, 0 63.75 C-2.46 52.71, 1.45 40, 0 21.25 C-2.11 10.31, 8.53 -1.72, 21.25 0" stroke="none" stroke-width="0" fill="#ffc9c9"></path><path d="M21.25 0 C50.06 0.77, 78.54 0.26, 118.75 0 M21.25 0 C42.32 -0.59, 63.45 -0.63, 118.75 0 M118.75 0 C134.66 0.51, 141.85 6.83, 140 21.25 M118.75 0 C132.66 0, 141.48 4.83, 140 21.25 M140 21.25 C140.4 34, 138.55 45.68, 140 63.75 M140 21.25 C140.04 37.17, 141.08 54.15, 140 63.75 M140 63.75 C140.08 77.5, 133.72 86.18, 118.75 85 M140 63.75 C139.54 80.13, 132.6 83.64, 118.75 85 M118.75 85 C89.83 85.04, 56.16 84.03, 21.25 85 M118.75 85 C84.78 86.24, 51.75 86.84, 21.25 85 M21.25 85 C5.69 84.95, -0.63 76.17, 0 63.75 M21.25 85 C7.5 87.1, 1.19 78.15, 0 63.75 M0 63.75 C0.65 52.49, 1.47 44.53, 0 21.25 M0 63.75 C-1.13 54.25, 0.63 46.8, 0 21.25 M0 21.25 C-0.3 5.48, 5.89 -1.19, 21.25 0 M0 21.25 C2.04 7.16, 8.17 -1.7, 21.25 0" stroke="#1971c2" stroke-width="1" fill="none"></path></g><g transform="translate(1559.397594221521 724.0068402093412) rotate(0 51.5799560546875 37.5)"><text x="51.5799560546875" y="0" font-family="Virgil, Segoe UI Emoji" font-size="20px" fill="#1e1e1e" text-anchor="middle" style="white-space: pre;" direction="ltr" dominant-baseline="text-before-edge">Test </text><text x="51.5799560546875" y="25" font-family="Virgil, Segoe UI Emoji" font-size="20px" fill="#1e1e1e" text-anchor="middle" style="white-space: pre;" direction="ltr" dominant-baseline="text-before-edge">Execution </text><text x="51.5799560546875" y="50" font-family="Virgil, Segoe UI Emoji" font-size="20px" fill="#1e1e1e" text-anchor="middle" style="white-space: pre;" direction="ltr" dominant-baseline="text-before-edge">Engine</text></g><g stroke-linecap="round" transform="translate(1484.2657610512283 475.5481107670317) rotate(0 70 36)"><path d="M18 0 C44.32 -0.44, 66.44 0.09, 122 0 C136.8 0.18, 139.76 4.98, 140 18 C142.67 29.15, 136.92 35.47, 140 54 C142.76 67.46, 132.21 70.71, 122 72 C84.22 74.65, 47.78 70.44, 18 72 C6.41 72.09, -1.44 63.56, 0 54 C-2.37 44.23, 1.19 26.29, 0 18 C-1.91 6.66, 5.36 -0.43, 18 0" stroke="none" stroke-width="0" fill="#b2f2bb"></path><path d="M18 0 C54.8 -1.47, 94.25 -0.9, 122 0 M18 0 C40.79 1.23, 62.75 0.85, 122 0 M122 0 C133.77 0, 141.29 4.04, 140 18 M122 0 C133.87 0.04, 141.17 6.45, 140 18 M140 18 C141.52 30.11, 137.79 40.16, 140 54 M140 18 C140.36 26.41, 140.72 35.82, 140 54 M140 54 C139.6 67.93, 133.72 70.82, 122 72 M140 54 C140.28 65.06, 131.96 73.75, 122 72 M122 72 C86.89 71.3, 52.04 70.16, 18 72 M122 72 C86.46 72.97, 51.99 72.11, 18 72 M18 72 C6.37 73.83, 1.04 66.21, 0 54 M18 72 C4.51 72.22, 0.84 66.79, 0 54 M0 54 C-2.06 46.97, -1.42 35.33, 0 18 M0 54 C-0.49 44.42, -0.94 35.84, 0 18 M0 18 C1.78 6.06, 6.94 -1.48, 18 0 M0 18 C-1.67 6.88, 7.11 0.49, 18 0" stroke="#1971c2" stroke-width="1" fill="none"></path></g><g transform="translate(1499.0490938759353 486.5481107670317) rotate(0 55.21666717529297 25)"><text x="55.21666717529297" y="0" font-family="Virgil, Segoe UI Emoji" font-size="20px" fill="#1e1e1e" text-anchor="middle" style="white-space: pre;" direction="ltr" dominant-baseline="text-before-edge">openDuT </text><text x="55.21666717529297" y="25" font-family="Virgil, Segoe UI Emoji" font-size="20px" fill="#1e1e1e" text-anchor="middle" style="white-space: pre;" direction="ltr" dominant-baseline="text-before-edge">ETH Bridge</text></g><g stroke-linecap="round" transform="translate(1394.2710023067564 346.4026329964104) rotate(0 70 36)"><path d="M18 0 C54.58 -0.56, 85.31 -1.76, 122 0 C131.52 -1.35, 139.04 8.91, 140 18 C142.25 33.09, 137.7 43.97, 140 54 C142.27 68.4, 136.32 71.99, 122 72 C87.04 70.66, 49.82 68.12, 18 72 C8.19 73.47, 2.72 63.89, 0 54 C-2.18 40.63, -0.9 25.52, 0 18 C-0.38 7.72, 7.54 -3.2, 18 0" stroke="none" stroke-width="0" fill="#b2f2bb"></path><path d="M18 0 C42.16 -0.51, 68.01 1.97, 122 0 M18 0 C51.74 0.13, 86.35 -0.85, 122 0 M122 0 C133.89 0.03, 141.02 6.39, 140 18 M122 0 C134.27 -1.68, 139.32 8.05, 140 18 M140 18 C138.44 32.17, 139.34 42.85, 140 54 M140 18 C139.94 29.01, 140.01 37.5, 140 54 M140 54 C140.25 65.18, 132.22 73.52, 122 72 M140 54 C141.04 64.05, 133.88 72.9, 122 72 M122 72 C94.83 69.39, 68.15 69.68, 18 72 M122 72 C91.22 72, 60.59 71.19, 18 72 M18 72 C4.7 72.19, 0.73 66.69, 0 54 M18 72 C4.55 73.74, 0.88 63.94, 0 54 M0 54 C-0.91 42.42, 2.08 26.73, 0 18 M0 54 C1.1 46.11, 0.69 37.42, 0 18 M0 18 C-1.45 6.76, 6.96 0.43, 18 0 M0 18 C-1.3 7.13, 7.64 0.65, 18 0" stroke="#1971c2" stroke-width="1" fill="none"></path></g><g transform="translate(1407.9310364864439 369.9026329964104) rotate(0 56.3399658203125 12.5)"><text x="56.3399658203125" y="0" font-family="Virgil, Segoe UI Emoji" font-size="20px" fill="#1e1e1e" text-anchor="middle" style="white-space: pre;" direction="ltr" dominant-baseline="text-before-edge">GRE Bridge</text></g><g stroke-linecap="round"><g transform="translate(380.5667052131241 462.43209013313356) rotate(0 14.679132904922369 -23.54878313245254)"><path d="M0 0 C11.19 -18.49, 22.68 -35.98, 29.36 -47.1 M0 0 C6.2 -9.42, 11.93 -19.39, 29.36 -47.1" stroke="#1971c2" stroke-width="2" fill="none"></path></g><g transform="translate(380.5667052131241 462.43209013313356) rotate(0 14.679132904922369 -23.54878313245254)"><path d="M28.73 -46.34 L27.93 -33.1 L17.53 -39.49 L28.55 -47.66" stroke="none" stroke-width="0" fill="#1971c2" fill-rule="evenodd"></path><path d="M29.36 -47.1 C28.58 -41.41, 27.97 -35.07, 27.54 -32.21 M29.36 -47.1 C29.18 -44.02, 28.67 -41.36, 27.54 -32.21 M27.54 -32.21 C23.99 -34.09, 21.31 -35.25, 16.79 -38.92 M27.54 -32.21 C24.61 -33.94, 21.35 -35.73, 16.79 -38.92 M16.79 -38.92 C20.1 -41.93, 24.58 -43.27, 29.36 -47.1 M16.79 -38.92 C19.37 -40.36, 21.86 -42.33, 29.36 -47.1 M29.36 -47.1 C29.36 -47.1, 29.36 -47.1, 29.36 -47.1 M29.36 -47.1 C29.36 -47.1, 29.36 -47.1, 29.36 -47.1" stroke="#1971c2" stroke-width="2" fill="none"></path></g></g><mask></mask><g stroke-linecap="round"><g transform="translate(414.2006932292145 319.99941057407204) rotate(0 292.35110609391046 -30.98812948046347)"><path d="M0 0 C0.04 -8.14, -1.92 -18.96, 0.02 -24.02 M0 0 C0 -7.98, -0.41 -13.6, 0.02 -24.02 M0.02 -24.02 C-23.44 -22.06, -44.78 -23.5, -64.62 -23.23 M0.02 -24.02 C-18.22 -22.46, -36.19 -23.79, -64.62 -23.23 M-64.62 -23.23 C-63.63 -78.91, -68.12 -136.46, -68.69 -204.31 M-64.62 -23.23 C-66.31 -84.28, -67.65 -145.12, -68.69 -204.31 M-68.69 -204.31 C97.05 -203.24, 264.92 -202.95, 653.4 -204.23 M-68.69 -204.31 C155.49 -204.42, 379.13 -204.23, 653.4 -204.23 M653.4 -204.23 C649.91 -88, 649.22 31.58, 651.32 142.34 M653.4 -204.23 C651.85 -68.22, 652.01 68.59, 651.32 142.34" stroke="#1971c2" stroke-width="2" fill="none"></path></g><g transform="translate(414.2006932292145 319.99941057407204) rotate(0 292.35110609391046 -30.98812948046347)"><path d="M652.09 140.54 L646.55 127.56 L656.12 127.66 L653.23 144.21" stroke="none" stroke-width="0" fill="#1971c2" fill-rule="evenodd"></path><path d="M651.32 142.34 C648.88 137.94, 644.95 131.55, 645.06 128.71 M651.32 142.34 C649.45 137.69, 647.25 134.79, 645.06 128.71 M645.06 128.71 C648.65 129.88, 653.59 128.82, 657.74 128.78 M645.06 128.71 C648.47 129.26, 652.05 128.3, 657.74 128.78 M657.74 128.78 C656.82 133.63, 652.4 137.11, 651.32 142.34 M657.74 128.78 C654.85 133.7, 652.71 138.75, 651.32 142.34 M651.32 142.34 C651.32 142.34, 651.32 142.34, 651.32 142.34 M651.32 142.34 C651.32 142.34, 651.32 142.34, 651.32 142.34" stroke="#1971c2" stroke-width="2" fill="none"></path></g></g><mask></mask><g stroke-linecap="round"><g transform="translate(232.87012987012918 324.33685203789537) rotate(0 669.3248618657715 -59.98039768991512)"><path d="M0 0 C-1.59 -7.94, 0.79 -14.62, 1.3 -27.07 M0 0 C0.09 -7.75, 1.24 -18.26, 1.3 -27.07 M1.3 -27.07 C14.76 -27.86, 28.41 -27.56, 49.55 -28.59 M1.3 -27.07 C18.48 -28.67, 36.06 -29.03, 49.55 -28.59 M49.55 -28.59 C46.55 -77.37, 48.59 -126.5, 49.22 -259.11 M49.55 -28.59 C50.45 -118.01, 50.44 -209.06, 49.22 -259.11 M49.22 -259.11 C396.22 -259.65, 741.84 -260.61, 1338.33 -259.17 M49.22 -259.11 C447.97 -260.6, 847.37 -261.28, 1338.33 -259.17 M1338.33 -259.17 C1336.51 -108.85, 1338.34 39.14, 1338.65 139.21 M1338.33 -259.17 C1337.55 -171.53, 1337.38 -84.35, 1338.65 139.21" stroke="#2f9e44" stroke-width="2" fill="none"></path></g><g transform="translate(232.87012987012918 324.33685203789537) rotate(0 669.3248618657715 -59.98039768991512)"><path d="M1340.14 138.07 L1330.63 124.53 L1346.83 127.46 L1338.35 137.61" stroke="none" stroke-width="0" fill="#2f9e44" fill-rule="evenodd"></path><path d="M1338.65 139.21 C1335.33 135.25, 1334.98 132.18, 1332.25 125.65 M1338.65 139.21 C1336.37 135.5, 1334.87 129.77, 1332.25 125.65 M1332.25 125.65 C1335.67 125.57, 1339.21 126.01, 1344.93 125.59 M1332.25 125.65 C1336.71 125.13, 1341.43 125.22, 1344.93 125.59 M1344.93 125.59 C1342.43 128.41, 1342.97 130.89, 1338.65 139.21 M1344.93 125.59 C1341.72 131.65, 1339.37 136.26, 1338.65 139.21 M1338.65 139.21 C1338.65 139.21, 1338.65 139.21, 1338.65 139.21 M1338.65 139.21 C1338.65 139.21, 1338.65 139.21, 1338.65 139.21" stroke="#2f9e44" stroke-width="2" fill="none"></path></g></g><mask></mask><g stroke-linecap="round"><g transform="translate(1187.9164278695666 334.32305730826374) rotate(0 -432.89520844985964 -56.15137742753561)"><path d="M0 0 C0.41 -14.15, 0.74 -30.1, -0.08 -41.64 M0 0 C0.55 -10.43, -0.06 -19.52, -0.08 -41.64 M-0.08 -41.64 C-38.94 -40.76, -75.78 -41.93, -98.89 -41.54 M-0.08 -41.64 C-39.12 -42.59, -79.3 -41.38, -98.89 -41.54 M-98.89 -41.54 C-96.01 -109.31, -94.53 -177.58, -97.61 -236.06 M-98.89 -41.54 C-97.52 -106.75, -96.71 -172.78, -97.61 -236.06 M-97.61 -236.06 C-342.06 -235.61, -586.59 -235.43, -865.79 -238.03 M-97.61 -236.06 C-354.29 -234.75, -610.99 -235.28, -865.79 -238.03 M-865.79 -238.03 C-865.84 -158.52, -867.97 -79.4, -865.55 125.73 M-865.79 -238.03 C-863.41 -150.97, -864.1 -62.74, -865.55 125.73" stroke="#ffd43b" stroke-width="2" fill="none"></path></g><g transform="translate(1187.9164278695666 334.32305730826374) rotate(0 -432.89520844985964 -56.15137742753561)"><path d="M-867.17 124.6 L-869.89 113.96 L-859.41 110.58 L-866.74 124.54" stroke="none" stroke-width="0" fill="#ffd43b" fill-rule="evenodd"></path><path d="M-865.55 125.73 C-867.66 121.52, -869.67 115.96, -871.79 112.09 M-865.55 125.73 C-866.59 121.95, -868.45 119.13, -871.79 112.09 M-871.79 112.09 C-867.12 112.63, -861.18 111.9, -859.11 112.18 M-871.79 112.09 C-866.69 111.94, -862.3 112.72, -859.11 112.18 M-859.11 112.18 C-860.86 116.37, -862.3 120.19, -865.55 125.73 M-859.11 112.18 C-861.9 116.76, -863.77 120.66, -865.55 125.73 M-865.55 125.73 C-865.55 125.73, -865.55 125.73, -865.55 125.73 M-865.55 125.73 C-865.55 125.73, -865.55 125.73, -865.55 125.73" stroke="#ffd43b" stroke-width="2" fill="none"></path></g></g><mask></mask><g stroke-linecap="round"><g transform="translate(1466.3732854505142 337.482326988875) rotate(0 -538.6054271649706 -67.69868085084119)"><path d="M0 0 C0.23 -9.95, -1.78 -20.98, -0.53 -34.62 M0 0 C-0.51 -14.08, 0.32 -27.09, -0.53 -34.62 M-0.53 -34.62 C28.21 -35.9, 56.52 -36.28, 90.16 -36.3 M-0.53 -34.62 C20.43 -33.9, 43.62 -35.91, 90.16 -36.3 M90.16 -36.3 C91.1 -102.36, 90.21 -166.79, 90.48 -255.29 M90.16 -36.3 C91.34 -123.56, 91.9 -208.5, 90.48 -255.29 M90.48 -255.29 C-352.06 -259.53, -794.48 -261.59, -1167.29 -258.88 M90.48 -255.29 C-381.68 -261.38, -854.77 -262.72, -1167.29 -258.88 M-1167.29 -258.88 C-1166.27 -108.51, -1166.18 44.36, -1167.69 123.49 M-1167.29 -258.88 C-1166.77 -142.73, -1166.17 -26.9, -1167.69 123.49" stroke="#e03131" stroke-width="2" fill="none"></path></g><g transform="translate(1466.3732854505142 337.482326988875) rotate(0 -538.6054271649706 -67.69868085084119)"><path d="M-1165.79 125.36 L-1174.24 108.25 L-1162.46 108.75 L-1165.92 123.55" stroke="none" stroke-width="0" fill="#e03131" fill-rule="evenodd"></path><path d="M-1167.69 123.49 C-1169.24 119.68, -1172.47 115.04, -1173.94 109.85 M-1167.69 123.49 C-1170.29 117.67, -1171.95 112.7, -1173.94 109.85 M-1173.94 109.85 C-1169.34 109.57, -1165.01 109.68, -1161.26 109.94 M-1173.94 109.85 C-1171.45 110.41, -1167.55 109.41, -1161.26 109.94 M-1161.26 109.94 C-1161.73 112.57, -1164.47 116.64, -1167.69 123.49 M-1161.26 109.94 C-1164.13 114.63, -1166.3 121.32, -1167.69 123.49 M-1167.69 123.49 C-1167.69 123.49, -1167.69 123.49, -1167.69 123.49 M-1167.69 123.49 C-1167.69 123.49, -1167.69 123.49, -1167.69 123.49" stroke="#e03131" stroke-width="2" fill="none"></path></g></g><mask></mask><g stroke-linecap="round"><g transform="translate(1171.9538445373666 463.5574898821119) rotate(0 12.234949806864932 -20.423283415573735)"><path d="M0 0 C8.07 -12.66, 15.88 -25.01, 24.47 -40.85 M0 0 C5.43 -9.41, 11.99 -20.06, 24.47 -40.85" stroke="#f08c00" stroke-width="2" fill="none"></path></g><g transform="translate(1171.9538445373666 463.5574898821119) rotate(0 12.234949806864932 -20.423283415573735)"><path d="M23.9 -40.36 L23.6 -25.65 L12.27 -33.08 L24.87 -40.07" stroke="none" stroke-width="0" fill="#f08c00" fill-rule="evenodd"></path><path d="M24.47 -40.85 C24.41 -36.46, 24.22 -31.88, 22.89 -25.93 M24.47 -40.85 C23.76 -36.97, 23.89 -33.98, 22.89 -25.93 M22.89 -25.93 C20.25 -28.44, 16.7 -30.33, 12.03 -32.47 M22.89 -25.93 C18.52 -28.79, 14.39 -30.81, 12.03 -32.47 M12.03 -32.47 C16.47 -35.1, 21.04 -38.8, 24.47 -40.85 M12.03 -32.47 C16.96 -35.78, 21.06 -38.92, 24.47 -40.85 M24.47 -40.85 C24.47 -40.85, 24.47 -40.85, 24.47 -40.85 M24.47 -40.85 C24.47 -40.85, 24.47 -40.85, 24.47 -40.85" stroke="#f08c00" stroke-width="2" fill="none"></path></g></g><mask></mask><g stroke-linecap="round"><g transform="translate(1523.1938697725975 465.3342809781023) rotate(0 -21.903177180528786 -17.812499917582386)"><path d="M0 0 C-14.04 -12.3, -30.5 -24.16, -43.81 -35.62 M0 0 C-10.97 -9.49, -22.58 -18.11, -43.81 -35.62" stroke="#e03131" stroke-width="2" fill="none"></path></g><g transform="translate(1523.1938697725975 465.3342809781023) rotate(0 -21.903177180528786 -17.812499917582386)"><path d="M-43.09 -35.34 L-29.01 -32.57 L-36.86 -21.35 L-43.76 -35.69" stroke="none" stroke-width="0" fill="#e03131" fill-rule="evenodd"></path><path d="M-43.81 -35.62 C-38.12 -34.47, -34.34 -33.03, -29.26 -31.96 M-43.81 -35.62 C-39.88 -35.05, -36.3 -33.63, -29.26 -31.96 M-29.26 -31.96 C-31.14 -29.9, -32.9 -27.17, -37.26 -22.13 M-29.26 -31.96 C-31.6 -28.78, -33.88 -26.11, -37.26 -22.13 M-37.26 -22.13 C-38.55 -25.76, -39.78 -28.17, -43.81 -35.62 M-37.26 -22.13 C-38.99 -25.2, -39.71 -27.48, -43.81 -35.62 M-43.81 -35.62 C-43.81 -35.62, -43.81 -35.62, -43.81 -35.62 M-43.81 -35.62 C-43.81 -35.62, -43.81 -35.62, -43.81 -35.62" stroke="#e03131" stroke-width="2" fill="none"></path></g></g><mask></mask><g stroke-linecap="round"><g transform="translate(259.1831105620945 463.5574898821119) rotate(0 -14.353970049344298 -25.290328182177973)"><path d="M0 0 C-9.7 -13.95, -17.37 -30.13, -28.71 -50.58 M0 0 C-11.08 -18.87, -22.14 -37.38, -28.71 -50.58" stroke="#2f9e44" stroke-width="2" fill="none"></path></g><g transform="translate(259.1831105620945 463.5574898821119) rotate(0 -14.353970049344298 -25.290328182177973)"><path d="M-28.21 -51.79 L-15.94 -39.99 L-27.83 -35.74 L-29.27 -51.96" stroke="none" stroke-width="0" fill="#2f9e44" fill-rule="evenodd"></path><path d="M-28.71 -50.58 C-26.15 -47.85, -22.53 -46.84, -16.73 -41.55 M-28.71 -50.58 C-24.2 -46.79, -19.9 -43, -16.73 -41.55 M-16.73 -41.55 C-17.87 -41.27, -21.47 -39.53, -27.93 -35.6 M-16.73 -41.55 C-18.77 -40.12, -21.89 -38.86, -27.93 -35.6 M-27.93 -35.6 C-27.11 -40.07, -29.85 -44.57, -28.71 -50.58 M-27.93 -35.6 C-27.28 -38.54, -28.3 -43.48, -28.71 -50.58 M-28.71 -50.58 C-28.71 -50.58, -28.71 -50.58, -28.71 -50.58 M-28.71 -50.58 C-28.71 -50.58, -28.71 -50.58, -28.71 -50.58" stroke="#2f9e44" stroke-width="2" fill="none"></path></g></g><mask></mask><g stroke-linecap="round" transform="translate(261 609.5066896338233) rotate(0 54.5 24.5)"><path d="M12.25 0 C39.93 -2.44, 67.95 2.32, 96.75 0 C101.39 3.18, 111.19 3.01, 109 12.25 C112.52 18.99, 108.53 25.83, 109 36.75 C109.87 43.96, 103.93 47.9, 96.75 49 C68.77 45.82, 34.61 49.38, 12.25 49 C3.32 45.78, 1.11 48.37, 0 36.75 C-3.47 30.29, -2.03 22.62, 0 12.25 C-2.01 2.68, 4.92 -2.46, 12.25 0" stroke="none" stroke-width="0" fill="#b2f2bb"></path><path d="M12.25 0 C38.77 0.75, 69.46 1.49, 96.75 0 M12.25 0 C39.69 -0.27, 67.21 -0.6, 96.75 0 M96.75 0 C103 -1.2, 108.68 6.02, 109 12.25 M96.75 0 C103.13 1.39, 110.35 4.76, 109 12.25 M109 12.25 C107.62 20.62, 110.54 26.27, 109 36.75 M109 12.25 C108.91 18.97, 108.98 23.3, 109 36.75 M109 36.75 C107.54 43.07, 104.16 48.64, 96.75 49 M109 36.75 C106.79 45.78, 103.1 49.12, 96.75 49 M96.75 49 C64.64 48.04, 30.37 47.76, 12.25 49 M96.75 49 C73 48.91, 47.5 48.9, 12.25 49 M12.25 49 C2.4 49.62, 0.56 46.04, 0 36.75 M12.25 49 C5.06 49.24, 0.97 45.42, 0 36.75 M0 36.75 C-1.07 32.15, -0.08 23.78, 0 12.25 M0 36.75 C0.71 27.88, -0.04 18.09, 0 12.25 M0 12.25 C0.82 4.46, 2.37 0.8, 12.25 0 M0 12.25 C1.4 2.54, 5.5 -0.27, 12.25 0" stroke="#1971c2" stroke-width="1" fill="none"></path></g><g transform="translate(283.32500076293945 621.5066896338233) rotate(0 32.17499923706055 12.5)"><text x="32.17499923706055" y="0" font-family="Virgil, Segoe UI Emoji" font-size="20px" fill="#1e1e1e" text-anchor="middle" style="white-space: pre;" direction="ltr" dominant-baseline="text-before-edge">ETH 0</text></g><g stroke-linecap="round"><g transform="translate(311.07273720247485 599.5543086814423) rotate(0 0.3098287549921679 -25.547619047619037)"><path d="M0 0 C1.46 -17.71, 2.36 -38.2, 0.62 -51.1 M0 0 C0.85 -17.94, -0.02 -35.09, 0.62 -51.1" stroke="#1e1e1e" stroke-width="2" fill="none"></path></g><g transform="translate(311.07273720247485 599.5543086814423) rotate(0 0.3098287549921679 -25.547619047619037)"><path d="M-1.15 -0.16 L-6.49 -12.9 L4.99 -15.29 L1.73 1.16" stroke="none" stroke-width="0" fill="#1e1e1e" fill-rule="evenodd"></path><path d="M0 0 C-1.34 -4, -3.02 -10.14, -5.78 -13.84 M0 0 C-1.42 -5.18, -4.2 -9.71, -5.78 -13.84 M-5.78 -13.84 C-1.27 -13.04, 2.78 -12.29, 6.88 -13.33 M-5.78 -13.84 C-3.37 -13.45, -0.56 -13.52, 6.88 -13.33 M6.88 -13.33 C5.16 -8.64, 1.76 -1.74, 0 0 M6.88 -13.33 C5.44 -10.69, 3.77 -7.14, 0 0 M0 0 C0 0, 0 0, 0 0 M0 0 C0 0, 0 0, 0 0" stroke="#1e1e1e" stroke-width="2" fill="none"></path></g><g transform="translate(311.07273720247485 599.5543086814423) rotate(0 0.3098287549921679 -25.547619047619037)"><path d="M-0.53 -51.25 L6.01 -36.46 L-7.85 -39.57 L2.35 -49.94" stroke="none" stroke-width="0" fill="#1e1e1e" fill-rule="evenodd"></path><path d="M0.62 -51.1 C3.67 -44.81, 6.48 -40.57, 6.72 -37.39 M0.62 -51.1 C3.31 -46.81, 4.58 -41.97, 6.72 -37.39 M6.72 -37.39 C2.85 -37.07, -1.49 -36.57, -5.96 -37.61 M6.72 -37.39 C3.33 -37.39, 0.35 -37.63, -5.96 -37.61 M-5.96 -37.61 C-2.8 -43.14, -1.09 -46.42, 0.62 -51.1 M-5.96 -37.61 C-4.31 -41.66, -2.68 -44.67, 0.62 -51.1 M0.62 -51.1 C0.62 -51.1, 0.62 -51.1, 0.62 -51.1 M0.62 -51.1 C0.62 -51.1, 0.62 -51.1, 0.62 -51.1" stroke="#1e1e1e" stroke-width="2" fill="none"></path></g></g><mask></mask><g stroke-linecap="round" transform="translate(519.5 619.0066896338233) rotate(0 54.5 24.5)"><path d="M12.25 0 C38.72 0.98, 65.59 -0.72, 96.75 0 C107.58 -0.01, 107.31 4.57, 109 12.25 C108.94 22.73, 109.66 35.38, 109 36.75 C110.11 47.62, 103.18 45.66, 96.75 49 C68.84 50.07, 39.82 49.26, 12.25 49 C4.34 51.98, -1.53 44.75, 0 36.75 C0.79 29.71, 1.8 23.28, 0 12.25 C2.4 1.2, 5.18 1.59, 12.25 0" stroke="none" stroke-width="0" fill="#b2f2bb"></path><path d="M12.25 0 C44.85 -0.53, 73.78 -2.02, 96.75 0 M12.25 0 C38.5 -1.4, 63.03 -0.82, 96.75 0 M96.75 0 C103.91 -0.29, 109.13 3.59, 109 12.25 M96.75 0 C106.95 -2.18, 110.38 4.93, 109 12.25 M109 12.25 C110.85 18.05, 110.3 23.98, 109 36.75 M109 12.25 C108.68 18.36, 110 24.14, 109 36.75 M109 36.75 C110.85 46, 106.78 47.44, 96.75 49 M109 36.75 C108.71 44, 105.01 49.66, 96.75 49 M96.75 49 C71.01 49.86, 45.51 47.87, 12.25 49 M96.75 49 C79.04 48.76, 61.54 47.88, 12.25 49 M12.25 49 C5.22 47.12, 0.91 46.11, 0 36.75 M12.25 49 C5.14 49.41, 0.45 43.14, 0 36.75 M0 36.75 C-1.83 31.74, 0.79 25.64, 0 12.25 M0 36.75 C-0.63 29.72, 0.48 21.18, 0 12.25 M0 12.25 C1.18 3.05, 5.08 -0.48, 12.25 0 M0 12.25 C-1.28 5.79, 1.8 1.18, 12.25 0" stroke="#1971c2" stroke-width="1" fill="none"></path></g><g transform="translate(542.6749992370605 631.0066896338233) rotate(0 31.325000762939453 12.5)"><text x="31.325000762939453" y="0" font-family="Virgil, Segoe UI Emoji" font-size="20px" fill="#1e1e1e" text-anchor="middle" style="white-space: pre;" direction="ltr" dominant-baseline="text-before-edge">CAN 0</text></g><g stroke-linecap="round" transform="translate(669.6860746427334 617.3075599686524) rotate(0 54.5 24.5)"><path d="M12.25 0 C30.52 -1.05, 54.83 2, 96.75 0 C102.41 0.15, 109.42 0.68, 109 12.25 C109.46 20.45, 109.97 24.49, 109 36.75 C110.47 43.07, 103.22 46.78, 96.75 49 C74.74 49.62, 46.16 50.62, 12.25 49 C6.69 52.02, -3 45.82, 0 36.75 C0.74 32.42, -2.17 23.9, 0 12.25 C3.35 2.87, 7.23 -1.72, 12.25 0" stroke="none" stroke-width="0" fill="#b2f2bb"></path><path d="M12.25 0 C37.83 0.54, 63.29 -0.46, 96.75 0 M12.25 0 C37.81 0.5, 62.1 0.78, 96.75 0 M96.75 0 C104.94 1.33, 107.4 4.69, 109 12.25 M96.75 0 C105.94 -2.19, 111.16 5.64, 109 12.25 M109 12.25 C110.25 22.99, 109.3 31.8, 109 36.75 M109 12.25 C108.68 18.28, 109.52 25.14, 109 36.75 M109 36.75 C109 46.43, 104.18 50.93, 96.75 49 M109 36.75 C110.89 43.88, 106.05 47.06, 96.75 49 M96.75 49 C63.18 50.53, 29.67 48.38, 12.25 49 M96.75 49 C63.52 48.87, 29.7 49.8, 12.25 49 M12.25 49 C5.35 50.77, 0.38 46.11, 0 36.75 M12.25 49 C4.28 50.97, -0.4 44.58, 0 36.75 M0 36.75 C0.91 27.99, 1.45 24.79, 0 12.25 M0 36.75 C-0.06 30.12, 0.13 21.56, 0 12.25 M0 12.25 C0.25 3.93, 5.35 -1.53, 12.25 0 M0 12.25 C-0.38 5.03, 3.29 1.91, 12.25 0" stroke="#1971c2" stroke-width="1" fill="none"></path></g><g transform="translate(697.0360750242031 629.3075599686524) rotate(0 27.149999618530273 12.5)"><text x="27.149999618530273" y="0" font-family="Virgil, Segoe UI Emoji" font-size="20px" fill="#1e1e1e" text-anchor="middle" style="white-space: pre;" direction="ltr" dominant-baseline="text-before-edge">CAN 1</text></g><g stroke-linecap="round" transform="translate(593.5 478.00668963382327) rotate(0 65 33)"><path d="M16.5 0 C36.92 -1.71, 53.02 -0.65, 113.5 0 C121.78 -2.07, 133.1 5.64, 130 16.5 C131.41 24.76, 133.14 35.86, 130 49.5 C130.7 59.26, 127.46 62.65, 113.5 66 C74.59 68.62, 39.29 65.19, 16.5 66 C4.04 65.65, -1.49 60.59, 0 49.5 C1.01 37.17, -1.89 27.93, 0 16.5 C-2.97 8.45, 9.08 -2.8, 16.5 0" stroke="none" stroke-width="0" fill="#b2f2bb"></path><path d="M16.5 0 C39.32 -0.71, 65.26 0.42, 113.5 0 M16.5 0 C41.61 0.24, 68.84 0.07, 113.5 0 M113.5 0 C126.25 -0.72, 131.3 4.32, 130 16.5 M113.5 0 C125.33 1.95, 131.44 6.88, 130 16.5 M130 16.5 C129.74 26.52, 131.69 36.14, 130 49.5 M130 16.5 C130.25 24.21, 130.12 30.01, 130 49.5 M130 49.5 C129.88 61.09, 122.57 67.99, 113.5 66 M130 49.5 C131.49 58.41, 124.22 64.65, 113.5 66 M113.5 66 C78.71 65.29, 45.2 65.99, 16.5 66 M113.5 66 C81.23 64.67, 49.87 64.65, 16.5 66 M16.5 66 C3.63 66.15, -0.74 60.18, 0 49.5 M16.5 66 C7.23 67.93, -0.79 62.59, 0 49.5 M0 49.5 C0.4 39.79, -1.02 29.56, 0 16.5 M0 49.5 C0.54 39.93, 1.03 28.19, 0 16.5 M0 16.5 C1.79 3.82, 3.73 1.24, 16.5 0 M0 16.5 C1.36 4.41, 3.98 1.33, 16.5 0" stroke="#1971c2" stroke-width="1" fill="none"></path></g><g transform="translate(604.1333351135254 486.00668963382327) rotate(0 54.36666488647461 25)"><text x="54.36666488647461" y="0" font-family="Virgil, Segoe UI Emoji" font-size="20px" fill="#1e1e1e" text-anchor="middle" style="white-space: pre;" direction="ltr" dominant-baseline="text-before-edge">openDUT </text><text x="54.36666488647461" y="25" font-family="Virgil, Segoe UI Emoji" font-size="20px" fill="#1e1e1e" text-anchor="middle" style="white-space: pre;" direction="ltr" dominant-baseline="text-before-edge">CAN Bridge</text></g><g stroke-linecap="round" transform="translate(516 339.50668963382327) rotate(0 67.5 35)"><path d="M17.5 0 C40.11 4.29, 67.04 2.24, 117.5 0 C131.29 -2.72, 134.24 4.36, 135 17.5 C137.32 29.92, 135.4 35.14, 135 52.5 C132.29 60.74, 131.67 71.76, 117.5 70 C82.92 70.09, 46.19 71.91, 17.5 70 C2.51 70.99, -1.85 62.9, 0 52.5 C-1.47 47.31, 2.45 38.97, 0 17.5 C-1.17 2.91, 7.82 1.05, 17.5 0" stroke="none" stroke-width="0" fill="#b2f2bb"></path><path d="M17.5 0 C52.29 1.32, 88.44 -0.02, 117.5 0 M17.5 0 C49.24 -0.26, 82.32 0.81, 117.5 0 M117.5 0 C128.93 -1.34, 136.54 4.09, 135 17.5 M117.5 0 C130.55 1.73, 133.33 6.1, 135 17.5 M135 17.5 C134.96 27.75, 135.09 35.94, 135 52.5 M135 17.5 C134.22 24.9, 134.69 33.88, 135 52.5 M135 52.5 C135.66 62.58, 130.3 68.01, 117.5 70 M135 52.5 C133.47 64.63, 131.06 70.16, 117.5 70 M117.5 70 C94.93 70.83, 70.66 67.92, 17.5 70 M117.5 70 C95 70.42, 71.22 68.98, 17.5 70 M17.5 70 C4.88 68.04, 0.02 65.13, 0 52.5 M17.5 70 C5.86 70.18, -0.81 62.52, 0 52.5 M0 52.5 C1.9 45.55, 0.89 38.12, 0 17.5 M0 52.5 C0.51 42.29, 0.44 32.85, 0 17.5 M0 17.5 C1.89 6.23, 5.68 -1.65, 17.5 0 M0 17.5 C0.02 6.89, 5.61 -0.97, 17.5 0" stroke="#1971c2" stroke-width="1" fill="none"></path></g><g transform="translate(539.3499984741211 362.00668963382327) rotate(0 44.150001525878906 12.5)"><text x="44.150001525878906" y="0" font-family="Virgil, Segoe UI Emoji" font-size="20px" fill="#1e1e1e" text-anchor="middle" style="white-space: pre;" direction="ltr" dominant-baseline="text-before-edge">cannelloni</text></g><g stroke-linecap="round"><g transform="translate(627.3438168031505 465.4108383647829) rotate(0 -20.55972548664323 -22.72588388928932)"><path d="M0 0 C-15.89 -17.19, -30.05 -34.41, -41.12 -45.45 M0 0 C-12.51 -13.46, -24.15 -26.15, -41.12 -45.45" stroke="#1e1e1e" stroke-width="2" fill="none"></path></g><g transform="translate(627.3438168031505 465.4108383647829) rotate(0 -20.55972548664323 -22.72588388928932)"><path d="M0.57 -0.48 L-13.83 -5.07 L-4.16 -14.43 L-0.46 0.34" stroke="none" stroke-width="0" fill="#1e1e1e" fill-rule="evenodd"></path><path d="M0 0 C-5.58 -2.33, -9.84 -4.72, -13.78 -5.92 M0 0 C-4.37 -1.94, -8.12 -3.26, -13.78 -5.92 M-13.78 -5.92 C-10.95 -8.82, -8.42 -10.75, -4.32 -14.36 M-13.78 -5.92 C-11.73 -8.03, -10.08 -9.82, -4.32 -14.36 M-4.32 -14.36 C-3.82 -11.14, -2.63 -7.25, 0 0 M-4.32 -14.36 C-3.44 -10.7, -1.89 -6.08, 0 0 M0 0 C0 0, 0 0, 0 0 M0 0 C0 0, 0 0, 0 0" stroke="#1e1e1e" stroke-width="2" fill="none"></path></g><g transform="translate(627.3438168031505 465.4108383647829) rotate(0 -20.55972548664323 -22.72588388928932)"><path d="M-40.55 -45.93 L-27.41 -38.64 L-36.67 -31.14 L-41.58 -45.11" stroke="none" stroke-width="0" fill="#1e1e1e" fill-rule="evenodd"></path><path d="M-41.12 -45.45 C-36.43 -43.25, -30.41 -41.21, -27.36 -39.49 M-41.12 -45.45 C-37.44 -44.01, -33.18 -41.86, -27.36 -39.49 M-27.36 -39.49 C-29.76 -37.73, -32.51 -34.97, -36.84 -31.08 M-27.36 -39.49 C-29.27 -37.99, -31.63 -36.2, -36.84 -31.08 M-36.84 -31.08 C-38.58 -34.89, -39.49 -38.01, -41.12 -45.45 M-36.84 -31.08 C-38.31 -35.48, -39.16 -38.88, -41.12 -45.45 M-41.12 -45.45 C-41.12 -45.45, -41.12 -45.45, -41.12 -45.45 M-41.12 -45.45 C-41.12 -45.45, -41.12 -45.45, -41.12 -45.45" stroke="#1e1e1e" stroke-width="2" fill="none"></path></g></g><mask></mask><g stroke-linecap="round"><g transform="translate(719.7756627443536 608.182000856511) rotate(0 -13.982981991785323 -26.225411816120385)"><path d="M0 0 C-5.01 -11.04, -12.84 -22.79, -27.97 -52.45 M0 0 C-11.03 -21.91, -21.55 -42.72, -27.97 -52.45" stroke="#1e1e1e" stroke-width="2" fill="none"></path></g><g transform="translate(719.7756627443536 608.182000856511) rotate(0 -13.982981991785323 -26.225411816120385)"><path d="M1.88 1.73 L-10.63 -7.22 L1.08 -14.12 L1.36 1.9" stroke="none" stroke-width="0" fill="#1e1e1e" fill-rule="evenodd"></path><path d="M0 0 C-1.72 -1.32, -5.52 -3.11, -12.02 -8.97 M0 0 C-5.01 -4.31, -9.34 -7.86, -12.02 -8.97 M-12.02 -8.97 C-9.03 -11.33, -6.02 -11.52, -0.85 -14.98 M-12.02 -8.97 C-8.27 -10.7, -4.05 -13.37, -0.85 -14.98 M-0.85 -14.98 C-1.27 -7.68, -0.39 -1.82, 0 0 M-0.85 -14.98 C0.09 -8.72, -0.29 -2.88, 0 0 M0 0 C0 0, 0 0, 0 0 M0 0 C0 0, 0 0, 0 0" stroke="#1e1e1e" stroke-width="2" fill="none"></path></g><g transform="translate(719.7756627443536 608.182000856511) rotate(0 -13.982981991785323 -26.225411816120385)"><path d="M-26.08 -50.73 L-14.2 -42.22 L-24.57 -36.67 L-26.61 -50.55" stroke="none" stroke-width="0" fill="#1e1e1e" fill-rule="evenodd"></path><path d="M-27.97 -52.45 C-24.07 -49.93, -22.22 -47.68, -15.59 -43.97 M-27.97 -52.45 C-23.45 -49.67, -18.09 -46.29, -15.59 -43.97 M-15.59 -43.97 C-18.69 -42.78, -21.85 -39.49, -26.51 -37.52 M-15.59 -43.97 C-19.49 -41.25, -22.91 -39.61, -26.51 -37.52 M-26.51 -37.52 C-28.03 -42.13, -28.08 -48.15, -27.97 -52.45 M-26.51 -37.52 C-26.7 -42.73, -27.97 -48.35, -27.97 -52.45 M-27.97 -52.45 C-27.97 -52.45, -27.97 -52.45, -27.97 -52.45 M-27.97 -52.45 C-27.97 -52.45, -27.97 -52.45, -27.97 -52.45" stroke="#1e1e1e" stroke-width="2" fill="none"></path></g></g><mask></mask><g stroke-linecap="round"><g transform="translate(585.0794301682232 609.5543086814423) rotate(0 19.268430733509547 -27.547619047619037)"><path d="M0 0 C8.75 -15.3, 19.49 -29.15, 38.54 -55.1 M0 0 C13.49 -19.52, 29.27 -40.85, 38.54 -55.1" stroke="#1e1e1e" stroke-width="2" fill="none"></path></g><g transform="translate(585.0794301682232 609.5543086814423) rotate(0 19.268430733509547 -27.547619047619037)"><path d="M-1.26 1.62 L4.13 -14.31 L13.67 -7.96 L1.72 -0.47" stroke="none" stroke-width="0" fill="#1e1e1e" fill-rule="evenodd"></path><path d="M0 0 C-0.62 -4.43, 0.31 -7.7, 2.38 -14.81 M0 0 C0.4 -5.06, 2.4 -11.22, 2.38 -14.81 M2.38 -14.81 C6.54 -12.17, 9.08 -8.73, 12.87 -7.7 M2.38 -14.81 C5.51 -12.42, 8.48 -10.51, 12.87 -7.7 M12.87 -7.7 C6.59 -3.29, 1.55 -2.27, 0 0 M12.87 -7.7 C10.37 -6.31, 7.31 -4.67, 0 0 M0 0 C0 0, 0 0, 0 0 M0 0 C0 0, 0 0, 0 0" stroke="#1e1e1e" stroke-width="2" fill="none"></path></g><g transform="translate(585.0794301682232 609.5543086814423) rotate(0 19.268430733509547 -27.547619047619037)"><path d="M37.28 -53.48 L37.88 -39.79 L26.44 -47.68 L40.26 -55.57" stroke="none" stroke-width="0" fill="#1e1e1e" fill-rule="evenodd"></path><path d="M38.54 -55.1 C36.58 -51.59, 36.22 -46.9, 36.13 -40.29 M38.54 -55.1 C37.31 -49.21, 37.54 -44.39, 36.13 -40.29 M36.13 -40.29 C33.05 -42.41, 28.35 -43.89, 25.65 -47.42 M36.13 -40.29 C32.82 -42.46, 29.18 -45.03, 25.65 -47.42 M25.65 -47.42 C29.75 -49.37, 35.01 -54.5, 38.54 -55.1 M25.65 -47.42 C28.48 -49.4, 30.67 -50.9, 38.54 -55.1 M38.54 -55.1 C38.54 -55.1, 38.54 -55.1, 38.54 -55.1 M38.54 -55.1 C38.54 -55.1, 38.54 -55.1, 38.54 -55.1" stroke="#1e1e1e" stroke-width="2" fill="none"></path></g></g><mask></mask><g stroke-linecap="round"><g transform="translate(583.0229394856847 330.9365713501337) rotate(0 123.7761697351329 -76.95736925473527)"><path d="M0 0 C-0.1 -14.52, -1.55 -27.99, 0.27 -44.77 M0 0 C-1.29 -16.63, 0.56 -33.69, 0.27 -44.77 M0.27 -44.77 C-62.43 -43.82, -129.32 -44.4, -212.76 -45.74 M0.27 -44.77 C-82.97 -45.03, -167.61 -46.45, -212.76 -45.74 M-212.76 -45.74 C-212.34 -81.17, -214.39 -120.42, -213.62 -154.17 M-212.76 -45.74 C-213.57 -70.77, -214.59 -94.1, -213.62 -154.17 M-213.62 -154.17 C40.55 -152.3, 293.84 -151.11, 461.17 -149.75 M-213.62 -154.17 C35.08 -151.13, 283.21 -150.02, 461.17 -149.75 M461.17 -149.75 C459.44 -126.06, 460.25 -102.42, 458.44 -38.55 M461.17 -149.75 C460.47 -125.75, 458.56 -102.49, 458.44 -38.55 M458.44 -38.55 C433.05 -37.78, 403.08 -36.64, 371.89 -38.86 M458.44 -38.55 C436.21 -38.7, 414.61 -39.25, 371.89 -38.86 M371.89 -38.86 C374.08 -22.97, 373.56 -9.08, 373.65 0.25 M371.89 -38.86 C372.11 -26.01, 372.17 -11.57, 373.65 0.25" stroke="#f08c00" stroke-width="2" fill="none"></path></g><g transform="translate(583.0229394856847 330.9365713501337) rotate(0 123.7761697351329 -76.95736925473527)"><path d="M-1.84 -0.69 L-7.16 -14.25 L6.65 -13.12 L1.11 -1.66" stroke="none" stroke-width="0" fill="#f08c00" fill-rule="evenodd"></path><path d="M0 0 C-2.02 -4.62, -5.21 -8.49, -6.61 -13.47 M0 0 C-3.29 -5.01, -4.42 -10.39, -6.61 -13.47 M-6.61 -13.47 C-1.76 -12.25, 0.07 -12.53, 6.07 -13.72 M-6.61 -13.47 C-1.19 -13.1, 3.22 -13.94, 6.07 -13.72 M6.07 -13.72 C3.85 -8.14, 0.48 -5.39, 0 0 M6.07 -13.72 C4.93 -11.26, 2.95 -7.56, 0 0 M0 0 C0 0, 0 0, 0 0 M0 0 C0 0, 0 0, 0 0" stroke="#f08c00" stroke-width="2" fill="none"></path></g><g transform="translate(583.0229394856847 330.9365713501337) rotate(0 123.7761697351329 -76.95736925473527)"><path d="M371.81 -0.43 L365.59 -13.52 L379.35 -13.25 L374.76 -1.41" stroke="none" stroke-width="0" fill="#f08c00" fill-rule="evenodd"></path><path d="M373.65 0.25 C371.36 -4.21, 367.88 -7.93, 366.14 -12.73 M373.65 0.25 C370.03 -4.57, 368.57 -9.77, 366.14 -12.73 M366.14 -12.73 C370.97 -11.77, 372.79 -12.31, 378.77 -13.84 M366.14 -12.73 C371.55 -12.7, 375.93 -13.89, 378.77 -13.84 M378.77 -13.84 C376.87 -8.13, 373.82 -5.24, 373.65 0.25 M378.77 -13.84 C377.84 -11.31, 376.08 -7.53, 373.65 0.25 M373.65 0.25 C373.65 0.25, 373.65 0.25, 373.65 0.25 M373.65 0.25 C373.65 0.25, 373.65 0.25, 373.65 0.25" stroke="#f08c00" stroke-width="2" fill="none"></path></g></g><mask></mask><g transform="translate(10 14.006689633823271) rotate(0 0.5 8.75)"><text x="0" y="0" font-family="Assistant, Segoe UI Emoji" font-size="14px" fill="#999999" text-anchor="start" style="white-space: pre;" direction="ltr" dominant-baseline="text-before-edge">Frame 1</text></g><rect transform="translate(10 34.50668963382327) rotate(0 0.5 0.5)" width="1px" height="1px" rx="8" ry="8" fill="none" stroke="#bbb" stroke-width="2"></rect><g stroke-linecap="round"><g transform="translate(463.2561546274069 720.6998146826827) rotate(0 28.49543100217079 -24.14074629330571)"><path d="M0 0 C11.2 -9.41, 22.78 -18.06, 56.99 -48.28 M0 0 C18.23 -15.54, 34.95 -28.71, 56.99 -48.28" stroke="#1e1e1e" stroke-width="2" fill="none"></path></g><g transform="translate(463.2561546274069 720.6998146826827) rotate(0 28.49543100217079 -24.14074629330571)"><path d="M1.5 -1.25 L6.23 -13.17 L13.27 -2.01 L0.94 -0.42" stroke="none" stroke-width="0" fill="#1e1e1e" fill-rule="evenodd"></path><path d="M0 0 C0.68 -2.43, 1.78 -4.18, 6.42 -13.56 M0 0 C2.32 -4.81, 3.72 -7.74, 6.42 -13.56 M6.42 -13.56 C8.89 -10.56, 12.87 -7.64, 14.51 -3.8 M6.42 -13.56 C8.63 -10.68, 11.27 -7.78, 14.51 -3.8 M14.51 -3.8 C9.23 -1.9, 5.25 -3.01, 0 0 M14.51 -3.8 C11.76 -3.1, 7.67 -2.07, 0 0 M0 0 C0 0, 0 0, 0 0 M0 0 C0 0, 0 0, 0 0" stroke="#1e1e1e" stroke-width="2" fill="none"></path></g><g transform="translate(463.2561546274069 720.6998146826827) rotate(0 28.49543100217079 -24.14074629330571)"><path d="M58.49 -49.53 L50.68 -34.2 L41.32 -42.37 L57.93 -48.7" stroke="none" stroke-width="0" fill="#1e1e1e" fill-rule="evenodd"></path><path d="M56.99 -48.28 C54.88 -45.06, 53.37 -41.12, 50.88 -34.58 M56.99 -48.28 C55.21 -44.77, 52.77 -39.34, 50.88 -34.58 M50.88 -34.58 C47.61 -38.21, 46 -41.88, 42.57 -44.16 M50.88 -34.58 C48.35 -37.58, 46.12 -40.41, 42.57 -44.16 M42.57 -44.16 C45.57 -44.44, 49.87 -47.81, 56.99 -48.28 M42.57 -44.16 C45.9 -45.12, 47.9 -45.75, 56.99 -48.28 M56.99 -48.28 C56.99 -48.28, 56.99 -48.28, 56.99 -48.28 M56.99 -48.28 C56.99 -48.28, 56.99 -48.28, 56.99 -48.28" stroke="#1e1e1e" stroke-width="2" fill="none"></path></g></g><mask></mask><g stroke-linecap="round"><g transform="translate(231.8546741155626 803.7296701108999) rotate(0 241.93220627383624 -50.34853067054442)"><path d="M0 0 C1.51 5.46, 1.88 12.22, 0.15 25.78 M0 0 C-0.49 5.9, 0.99 12.94, 0.15 25.78 M0.15 25.78 C188.63 27.17, 378.76 28.25, 483.53 28.27 M0.15 25.78 C150.78 27.82, 300.84 28.72, 483.53 28.27 M483.53 28.27 C485.44 -3.81, 484.14 -40.64, 483.86 -128.97 M483.53 28.27 C484.41 -25.15, 485.48 -78.94, 483.86 -128.97" stroke="#1e1e1e" stroke-width="2" fill="none"></path></g><g transform="translate(231.8546741155626 803.7296701108999) rotate(0 241.93220627383624 -50.34853067054442)"><path d="M0.38 -1.2 L4.89 11.6 L-3.63 10.37 L-1.66 -1" stroke="none" stroke-width="0" fill="#1e1e1e" fill-rule="evenodd"></path><path d="M0 0 C2.26 2.34, 3.8 5.57, 6.32 11.23 M0 0 C1.14 2.55, 3.59 5.8, 6.32 11.23 M6.32 11.23 C1.36 11.32, -1.5 11.78, -4.54 12.06 M6.32 11.23 C3.34 11.4, -0.37 11.83, -4.54 12.06 M-4.54 12.06 C-2.83 10.61, -2.74 6.11, 0 0 M-4.54 12.06 C-3.04 8.14, -0.87 3.98, 0 0 M0 0 C0 0, 0 0, 0 0 M0 0 C0 0, 0 0, 0 0" stroke="#1e1e1e" stroke-width="2" fill="none"></path></g><g transform="translate(231.8546741155626 803.7296701108999) rotate(0 241.93220627383624 -50.34853067054442)"><path d="M484.25 -130.17 L489.01 -115.12 L478.68 -116.96 L482.2 -129.97" stroke="none" stroke-width="0" fill="#1e1e1e" fill-rule="evenodd"></path><path d="M483.86 -128.97 C486.33 -126.15, 487.96 -122.31, 490.44 -115.49 M483.86 -128.97 C485.01 -125.9, 487.67 -122.03, 490.44 -115.49 M490.44 -115.49 C484.65 -115.68, 481.31 -115.44, 477.76 -115.27 M490.44 -115.49 C486.97 -115.52, 482.64 -115.26, 477.76 -115.27 M477.76 -115.27 C479.93 -116.89, 480.21 -122.05, 483.86 -128.97 M477.76 -115.27 C479.79 -119.71, 482.6 -124.44, 483.86 -128.97 M483.86 -128.97 C483.86 -128.97, 483.86 -128.97, 483.86 -128.97 M483.86 -128.97 C483.86 -128.97, 483.86 -128.97, 483.86 -128.97" stroke="#1e1e1e" stroke-width="2" fill="none"></path></g></g><mask></mask><g stroke-linecap="round" transform="translate(676.5 339.50668963382327) rotate(0 67.5 35)"><path d="M17.5 0 C39.76 -3.52, 59.29 -1.34, 117.5 0 C130.63 -1.44, 134.74 5.68, 135 17.5 C134.66 26.52, 132.49 36.63, 135 52.5 C134.01 64.86, 130.97 73.31, 117.5 70 C76.64 69.09, 40.71 70.89, 17.5 70 C8.49 73.01, -1.1 62.29, 0 52.5 C2.63 39.77, -3.01 31.89, 0 17.5 C-0.58 3.12, 5.46 -1.61, 17.5 0" stroke="none" stroke-width="0" fill="#b2f2bb"></path><path d="M17.5 0 C48.19 1.54, 74.77 2.1, 117.5 0 M17.5 0 C43.47 -0.73, 70.12 0.4, 117.5 0 M117.5 0 C131 -0.97, 133.28 4.71, 135 17.5 M117.5 0 C126.99 1.7, 136.62 5.09, 135 17.5 M135 17.5 C135.92 30.08, 134.7 40.21, 135 52.5 M135 17.5 C134.98 27.33, 135.11 39.15, 135 52.5 M135 52.5 C136.61 65.84, 129.5 69.47, 117.5 70 M135 52.5 C133.91 65, 129.67 68.48, 117.5 70 M117.5 70 C78.93 70.73, 41.26 70.32, 17.5 70 M117.5 70 C89.83 69.83, 62.38 70.86, 17.5 70 M17.5 70 C5.15 71.58, -0.07 64.02, 0 52.5 M17.5 70 C8.07 68.4, 2.18 65.9, 0 52.5 M0 52.5 C0.78 42.91, -0.87 37.52, 0 17.5 M0 52.5 C0.53 38.95, 0.55 25.45, 0 17.5 M0 17.5 C-0.14 4.52, 4.5 -1.69, 17.5 0 M0 17.5 C-0.6 6.23, 3.58 -1.71, 17.5 0" stroke="#1971c2" stroke-width="1" fill="none"></path></g><g transform="translate(699.8499984741211 362.00668963382327) rotate(0 44.150001525878906 12.5)"><text x="44.150001525878906" y="0" font-family="Virgil, Segoe UI Emoji" font-size="20px" fill="#1e1e1e" text-anchor="middle" style="white-space: pre;" direction="ltr" dominant-baseline="text-before-edge">cannelloni</text></g><g stroke-linecap="round"><g transform="translate(698.5785952912815 466.9108383647828) rotate(0 20.904446514895824 -22.7258838892893)"><path d="M0 0 C10.31 -11.76, 21.27 -23.9, 41.81 -45.45 M0 0 C14.88 -16.58, 30.33 -32.98, 41.81 -45.45" stroke="#1e1e1e" stroke-width="2" fill="none"></path></g><g transform="translate(698.5785952912815 466.9108383647828) rotate(0 20.904446514895824 -22.7258838892893)"><path d="M0.68 -0.34 L4.3 -13.42 L13.06 -5.1 L0.87 0.53" stroke="none" stroke-width="0" fill="#1e1e1e" fill-rule="evenodd"></path><path d="M0 0 C0.7 -3.83, 1.96 -7.83, 4.42 -14.33 M0 0 C1.43 -5.26, 3.27 -10.41, 4.42 -14.33 M4.42 -14.33 C7.63 -11.61, 12.09 -7.3, 13.82 -5.82 M4.42 -14.33 C7.88 -10.86, 11.7 -7.75, 13.82 -5.82 M13.82 -5.82 C8.56 -3.69, 2.39 -1.43, 0 0 M13.82 -5.82 C9.45 -3.6, 4.87 -2.31, 0 0 M0 0 C0 0, 0 0, 0 0 M0 0 C0 0, 0 0, 0 0" stroke="#1e1e1e" stroke-width="2" fill="none"></path></g><g transform="translate(698.5785952912815 466.9108383647828) rotate(0 20.904446514895824 -22.7258838892893)"><path d="M42.49 -45.8 L37.1 -30.26 L27.15 -39.06 L42.68 -44.92" stroke="none" stroke-width="0" fill="#1e1e1e" fill-rule="evenodd"></path><path d="M41.81 -45.45 C40.08 -41.93, 39.01 -38.53, 37.22 -31.17 M41.81 -45.45 C40 -40.35, 38.58 -35.14, 37.22 -31.17 M37.22 -31.17 C33.43 -34.92, 30.81 -37.09, 27.92 -39.78 M37.22 -31.17 C33.41 -34.45, 29.9 -38.06, 27.92 -39.78 M27.92 -39.78 C33.51 -42.21, 38.15 -44.43, 41.81 -45.45 M27.92 -39.78 C32.2 -41.27, 36.26 -43.56, 41.81 -45.45 M41.81 -45.45 C41.81 -45.45, 41.81 -45.45, 41.81 -45.45 M41.81 -45.45 C41.81 -45.45, 41.81 -45.45, 41.81 -45.45" stroke="#1e1e1e" stroke-width="2" fill="none"></path></g></g><mask></mask><g stroke-linecap="round"><g transform="translate(745.3183660711871 329.1864477225613) rotate(0 319.29108336024035 -156.75395471544653)"><path d="M0 0 C-1.81 -20.29, 0.3 -42.41, -0.57 -52.85 M0 0 C-0.1 -20.54, -1.11 -41.05, -0.57 -52.85 M-0.57 -52.85 C-100.95 -51.58, -203.95 -53.44, -357.95 -54.57 M-0.57 -52.85 C-82.77 -54.65, -165.45 -54.47, -357.95 -54.57 M-357.95 -54.57 C-358.84 -78.35, -356.65 -104.43, -354.82 -136.34 M-357.95 -54.57 C-356.42 -85.82, -355.21 -116.79, -354.82 -136.34 M-354.82 -136.34 C-252.91 -137.03, -149.06 -136.76, 73.96 -133.97 M-354.82 -136.34 C-220.18 -135.38, -85.29 -135.1, 73.96 -133.97 M73.96 -133.97 C75.91 -188.41, 73.25 -246.4, 73.65 -319.19 M73.96 -133.97 C74.31 -173.46, 74.18 -210.69, 73.65 -319.19 M73.65 -319.19 C247.47 -317.69, 419.86 -316.26, 850.06 -311.47 M73.65 -319.19 C244.17 -317.58, 414.02 -315.96, 850.06 -311.47 M850.06 -311.47 C849.8 -228.12, 849.05 -142.12, 851.92 -30.43 M850.06 -311.47 C853.21 -225.27, 853.65 -140.15, 851.92 -30.43 M851.92 -30.43 C898.23 -30.25, 947.66 -28.69, 994.61 -29.41 M851.92 -30.43 C901.98 -31.48, 950.55 -30.65, 994.61 -29.41 M994.61 -29.41 C994.98 -20.82, 993.72 -10.64, 996.53 5.68 M994.61 -29.41 C996.15 -17.42, 996 -3.54, 996.53 5.68" stroke="#846358" stroke-width="2" fill="none"></path></g><g transform="translate(745.3183660711871 329.1864477225613) rotate(0 319.29108336024035 -156.75395471544653)"><path d="M0.05 -0.99 L-4.5 -12.4 L7.76 -15.1 L-0.43 -1.81" stroke="none" stroke-width="0" fill="#846358" fill-rule="evenodd"></path><path d="M0 0 C-3.6 -5.26, -4.33 -11.84, -6.47 -13.53 M0 0 C-2.25 -5.47, -5.31 -10.9, -6.47 -13.53 M-6.47 -13.53 C-2.1 -12.97, -0.34 -14.37, 6.2 -13.66 M-6.47 -13.53 C-3.01 -13.85, -0.02 -13.31, 6.2 -13.66 M6.2 -13.66 C3.6 -8.93, 2.68 -5.98, 0 0 M6.2 -13.66 C4.48 -8.84, 2.16 -3.75, 0 0 M0 0 C0 0, 0 0, 0 0 M0 0 C0 0, 0 0, 0 0" stroke="#846358" stroke-width="2" fill="none"></path></g><g transform="translate(745.3183660711871 329.1864477225613) rotate(0 319.29108336024035 -156.75395471544653)"><path d="M996.58 4.69 L991.66 -6.54 L1003.91 -9.59 L996.1 3.86" stroke="none" stroke-width="0" fill="#846358" fill-rule="evenodd"></path><path d="M996.53 5.68 C992.78 0.49, 991.91 -6.02, 989.68 -7.67 M996.53 5.68 C994.14 0.28, 990.94 -5.08, 989.68 -7.67 M989.68 -7.67 C994.05 -7.2, 995.81 -8.7, 1002.35 -8.15 M989.68 -7.67 C993.14 -8.07, 996.14 -7.61, 1002.35 -8.15 M1002.35 -8.15 C999.87 -3.37, 999.06 -0.37, 996.53 5.68 M1002.35 -8.15 C1000.77 -3.26, 998.59 1.89, 996.53 5.68 M996.53 5.68 C996.53 5.68, 996.53 5.68, 996.53 5.68 M996.53 5.68 C996.53 5.68, 996.53 5.68, 996.53 5.68" stroke="#846358" stroke-width="2" fill="none"></path></g></g><mask></mask><g stroke-linecap="round" transform="translate(1064.611111111111 617.5622451893788) rotate(0 54.5 24.5)"><path d="M12.25 0 C33.31 2.12, 56.16 -3.07, 96.75 0 C107.89 -0.53, 109.17 6.78, 109 12.25 C109.11 19.68, 105.85 27.51, 109 36.75 C112.15 48.44, 103.88 45.79, 96.75 49 C74.44 46.19, 51.41 50.29, 12.25 49 C3.11 51.73, -1.02 47.63, 0 36.75 C-2.57 27.49, 1.57 23.52, 0 12.25 C-3.31 2.68, 4.21 2.43, 12.25 0" stroke="none" stroke-width="0" fill="#b2f2bb"></path><path d="M12.25 0 C30.43 1.17, 51.79 -2.59, 96.75 0 M12.25 0 C35.52 -0.19, 58.73 0.75, 96.75 0 M96.75 0 C103 -1.76, 107.67 4.12, 109 12.25 M96.75 0 C104.16 -1.35, 108.13 3.44, 109 12.25 M109 12.25 C109.39 20.03, 108.27 26.89, 109 36.75 M109 12.25 C109.42 21.93, 109.63 30.62, 109 36.75 M109 36.75 C108.86 43.12, 106.58 49.43, 96.75 49 M109 36.75 C107.02 42.68, 105.32 47.48, 96.75 49 M96.75 49 C63.94 48.04, 31.05 49.44, 12.25 49 M96.75 49 C66.29 48.95, 38.19 50.4, 12.25 49 M12.25 49 C2.09 48.83, 1.28 43.92, 0 36.75 M12.25 49 C3.12 50.11, -1 44.69, 0 36.75 M0 36.75 C-0.03 27.16, -1.07 16.33, 0 12.25 M0 36.75 C-0.41 31.94, 0.97 27.04, 0 12.25 M0 12.25 C-0.61 4.72, 2.56 1.18, 12.25 0 M0 12.25 C1.74 3.49, 4.17 2.06, 12.25 0" stroke="#1971c2" stroke-width="1" fill="none"></path></g><g transform="translate(1086.9361118740505 629.5622451893788) rotate(0 32.17499923706055 12.5)"><text x="32.17499923706055" y="0" font-family="Virgil, Segoe UI Emoji" font-size="20px" fill="#1e1e1e" text-anchor="middle" style="white-space: pre;" direction="ltr" dominant-baseline="text-before-edge">ETH 0</text></g><g stroke-linecap="round"><g transform="translate(1116.6097766794471 608.6098642369979) rotate(0 -0.24031158368578076 -27.047619047619037)"><path d="M0 0 C-0.92 -9.65, 2.12 -21.72, -0.48 -54.1 M0 0 C-1.13 -18.85, 0.14 -37.42, -0.48 -54.1" stroke="#1e1e1e" stroke-width="2" fill="none"></path></g><g transform="translate(1116.6097766794471 608.6098642369979) rotate(0 -0.24031158368578076 -27.047619047619037)"><path d="M1.85 1.24 L-4.69 -12.16 L5.31 -13.44 L0.13 0.47" stroke="none" stroke-width="0" fill="#1e1e1e" fill-rule="evenodd"></path><path d="M0 0 C-2.06 -1.73, -0.95 -5.3, -6.07 -13.72 M0 0 C-2.62 -4.86, -3.64 -9.5, -6.07 -13.72 M-6.07 -13.72 C-3.24 -12.93, -1.66 -12.77, 6.61 -13.47 M-6.07 -13.72 C-3 -13.56, 1.24 -13.18, 6.61 -13.47 M6.61 -13.47 C4.38 -7.95, 1.22 -2.27, 0 0 M6.61 -13.47 C4.5 -11.35, 3.73 -7.61, 0 0 M0 0 C0 0, 0 0, 0 0 M0 0 C0 0, 0 0, 0 0" stroke="#1e1e1e" stroke-width="2" fill="none"></path></g><g transform="translate(1116.6097766794471 608.6098642369979) rotate(0 -0.24031158368578076 -27.047619047619037)"><path d="M1.37 -52.86 L7.38 -39.01 L-7.97 -40.41 L-0.35 -53.62" stroke="none" stroke-width="0" fill="#1e1e1e" fill-rule="evenodd"></path><path d="M-0.48 -54.1 C-0.18 -50.32, 3.49 -48.32, 6 -40.57 M-0.48 -54.1 C1.46 -49.5, 4.78 -44.71, 6 -40.57 M6 -40.57 C3.58 -39.84, -0.09 -39.71, -6.68 -40.43 M6 -40.57 C2.3 -40.54, -0.24 -40.2, -6.68 -40.43 M-6.68 -40.43 C-3.96 -45.23, -2.2 -49.98, -0.48 -54.1 M-6.68 -40.43 C-6.03 -43.84, -4.16 -45.7, -0.48 -54.1 M-0.48 -54.1 C-0.48 -54.1, -0.48 -54.1, -0.48 -54.1 M-0.48 -54.1 C-0.48 -54.1, -0.48 -54.1, -0.48 -54.1" stroke="#1e1e1e" stroke-width="2" fill="none"></path></g></g><mask></mask><g stroke-linecap="round" transform="translate(901.8611111111111 616.3122451893788) rotate(0 54.5 24.5)"><path d="M12.25 0 C40.2 3.93, 68.35 3.29, 96.75 0 C105.96 0.26, 111.52 2.21, 109 12.25 C106.96 17.69, 112.57 29.07, 109 36.75 C112.38 44.96, 105.7 50.63, 96.75 49 C72.2 49.38, 40.79 52.06, 12.25 49 C1.07 49.46, 0.81 41.58, 0 36.75 C-2.07 33.35, -0.67 26.41, 0 12.25 C-1.65 0.75, 2.76 0.1, 12.25 0" stroke="none" stroke-width="0" fill="#b2f2bb"></path><path d="M12.25 0 C31.57 0.34, 53.82 -1.07, 96.75 0 M12.25 0 C45.1 -0.08, 77.08 -0.31, 96.75 0 M96.75 0 C104.91 -1.1, 109.39 3.54, 109 12.25 M96.75 0 C105.05 -2.09, 108.65 5.54, 109 12.25 M109 12.25 C110.5 21.02, 107.49 26.82, 109 36.75 M109 12.25 C109.19 20.32, 109.69 29.58, 109 36.75 M109 36.75 C108.91 45.37, 104.73 49.31, 96.75 49 M109 36.75 C110.54 43.94, 103.55 48.56, 96.75 49 M96.75 49 C78.71 47.17, 63.12 48.5, 12.25 49 M96.75 49 C69.4 48.97, 44.14 47.97, 12.25 49 M12.25 49 C5.15 48.2, 0.95 44.13, 0 36.75 M12.25 49 C2.65 49.5, -1.97 46.33, 0 36.75 M0 36.75 C0.6 30.3, 0.88 23.32, 0 12.25 M0 36.75 C-0.11 26.9, -0.46 17.34, 0 12.25 M0 12.25 C-0.37 4.03, 2.96 0.53, 12.25 0 M0 12.25 C1.07 4.5, 4.95 -1.28, 12.25 0" stroke="#1971c2" stroke-width="1" fill="none"></path></g><g transform="translate(925.0361103481716 628.3122451893788) rotate(0 31.325000762939453 12.5)"><text x="31.325000762939453" y="0" font-family="Virgil, Segoe UI Emoji" font-size="20px" fill="#1e1e1e" text-anchor="middle" style="white-space: pre;" direction="ltr" dominant-baseline="text-before-edge">CAN 0</text></g><g stroke-linecap="round" transform="translate(890.8611111111111 477.3122451893788) rotate(0 65 33)"><path d="M16.5 0 C56.21 -1.15, 96.36 -3.28, 113.5 0 C125.36 0.7, 130.84 3.37, 130 16.5 C133.96 24.16, 131.36 33.36, 130 49.5 C130.42 61.95, 127.98 67.8, 113.5 66 C84.33 67.23, 62.01 63.43, 16.5 66 C2.76 68.05, 1.82 58.68, 0 49.5 C-1.58 34.36, -1.26 25.98, 0 16.5 C-2.67 4.3, 2.18 1.45, 16.5 0" stroke="none" stroke-width="0" fill="#b2f2bb"></path><path d="M16.5 0 C47.6 1.73, 76.76 1.41, 113.5 0 M16.5 0 C50.71 -0.84, 85.13 -0.56, 113.5 0 M113.5 0 C124.61 -1.82, 129.7 6.77, 130 16.5 M113.5 0 C124.83 1.1, 130.9 7.09, 130 16.5 M130 16.5 C130.98 26.6, 130.39 40.59, 130 49.5 M130 16.5 C130.24 23.97, 130.2 31.15, 130 49.5 M130 49.5 C131.34 59.65, 123.31 65.62, 113.5 66 M130 49.5 C127.93 60.86, 124.87 65.66, 113.5 66 M113.5 66 C94.23 66.48, 74.17 64.04, 16.5 66 M113.5 66 C84.24 64.7, 54.39 64.71, 16.5 66 M16.5 66 C4.26 66.43, -1.71 61.73, 0 49.5 M16.5 66 C5.55 65.92, -1.8 61.18, 0 49.5 M0 49.5 C1.63 36.96, -0.62 26.06, 0 16.5 M0 49.5 C0.01 40.67, -0.37 32.16, 0 16.5 M0 16.5 C0.93 5.86, 6.25 -1.11, 16.5 0 M0 16.5 C1.2 7.14, 4.93 -1.16, 16.5 0" stroke="#1971c2" stroke-width="1" fill="none"></path></g><g transform="translate(901.4944462246365 485.3122451893788) rotate(0 54.36666488647461 25)"><text x="54.36666488647461" y="0" font-family="Virgil, Segoe UI Emoji" font-size="20px" fill="#1e1e1e" text-anchor="middle" style="white-space: pre;" direction="ltr" dominant-baseline="text-before-edge">openDUT </text><text x="54.36666488647461" y="25" font-family="Virgil, Segoe UI Emoji" font-size="20px" fill="#1e1e1e" text-anchor="middle" style="white-space: pre;" direction="ltr" dominant-baseline="text-before-edge">CAN Bridge</text></g><g stroke-linecap="round" transform="translate(889.3611111111111 338.8122451893788) rotate(0 67.5 35)"><path d="M17.5 0 C49.08 1.63, 79.78 -1.19, 117.5 0 C126.68 3.48, 135.96 9.21, 135 17.5 C135.56 29.49, 138.62 40.37, 135 52.5 C133.91 60.9, 130.75 66.98, 117.5 70 C83.48 70.39, 56.76 66.51, 17.5 70 C7.92 69.58, 0.63 62.52, 0 52.5 C-2.44 44.04, -3.09 39.43, 0 17.5 C-0.42 3.46, 6.54 0.66, 17.5 0" stroke="none" stroke-width="0" fill="#b2f2bb"></path><path d="M17.5 0 C53.94 -0.62, 88.86 -0.39, 117.5 0 M17.5 0 C42.06 -0.64, 66.36 0.91, 117.5 0 M117.5 0 C129.45 0.96, 135.78 7.22, 135 17.5 M117.5 0 C130.4 -1.87, 134.04 7.27, 135 17.5 M135 17.5 C133.51 27.01, 134.28 32.93, 135 52.5 M135 17.5 C135.64 28.37, 134.37 39.89, 135 52.5 M135 52.5 C133.2 64.48, 129.49 69.7, 117.5 70 M135 52.5 C132.73 66.29, 128.44 70.32, 117.5 70 M117.5 70 C83.69 70.01, 47.74 70.24, 17.5 70 M117.5 70 C90.89 69.82, 64.68 70.22, 17.5 70 M17.5 70 C5.88 69.93, -1.57 64.76, 0 52.5 M17.5 70 C6.93 71, 1.58 66.2, 0 52.5 M0 52.5 C-0.58 42.69, -0.66 34.86, 0 17.5 M0 52.5 C0.66 42.27, 0.57 31.13, 0 17.5 M0 17.5 C1.04 7.26, 5.34 -1.01, 17.5 0 M0 17.5 C2.27 3.65, 7.69 0.66, 17.5 0" stroke="#1971c2" stroke-width="1" fill="none"></path></g><g transform="translate(912.7111095852322 361.3122451893788) rotate(0 44.150001525878906 12.5)"><text x="44.150001525878906" y="0" font-family="Virgil, Segoe UI Emoji" font-size="20px" fill="#1e1e1e" text-anchor="middle" style="white-space: pre;" direction="ltr" dominant-baseline="text-before-edge">cannelloni</text></g><g stroke-linecap="round"><g transform="translate(953.1281584290708 467.35986423699785) rotate(0 0.2518048388515126 -24.047619047619037)"><path d="M0 0 C-0.48 -13.64, -0.05 -27.61, 0.5 -48.1 M0 0 C0.21 -9.82, 0.44 -19.78, 0.5 -48.1" stroke="#1e1e1e" stroke-width="2" fill="none"></path></g><g transform="translate(953.1281584290708 467.35986423699785) rotate(0 0.2518048388515126 -24.047619047619037)"><path d="M-0.78 0.3 L-5.84 -13.17 L7.05 -12.7 L-0.53 -0.24" stroke="none" stroke-width="0" fill="#1e1e1e" fill-rule="evenodd"></path><path d="M0 0 C-2.25 -3.77, -3.86 -7.79, -6.31 -13.61 M0 0 C-1.26 -2.65, -2.48 -5.41, -6.31 -13.61 M-6.31 -13.61 C-1.44 -14.07, 2.86 -13.32, 6.36 -13.58 M-6.31 -13.61 C-3.54 -13.5, -0.77 -13.52, 6.36 -13.58 M6.36 -13.58 C3.86 -9.29, 1.78 -3.51, 0 0 M6.36 -13.58 C4.36 -9.63, 2.82 -5.85, 0 0 M0 0 C0 0, 0 0, 0 0 M0 0 C0 0, 0 0, 0 0" stroke="#1e1e1e" stroke-width="2" fill="none"></path></g><g transform="translate(953.1281584290708 467.35986423699785) rotate(0 0.2518048388515126 -24.047619047619037)"><path d="M-0.28 -47.8 L7.26 -34.04 L-5.21 -33.64 L-0.03 -48.33" stroke="none" stroke-width="0" fill="#1e1e1e" fill-rule="evenodd"></path><path d="M0.5 -48.1 C1.92 -44.03, 3.93 -40.21, 6.78 -34.47 M0.5 -48.1 C1.86 -45.09, 3.27 -42.16, 6.78 -34.47 M6.78 -34.47 C2.7 -35.02, -1.97 -34.3, -5.9 -34.53 M6.78 -34.47 C3.98 -34.44, 1.18 -34.47, -5.9 -34.53 M-5.9 -34.53 C-3.66 -40.17, -1.05 -44.35, 0.5 -48.1 M-5.9 -34.53 C-4.12 -38.37, -2.03 -42.34, 0.5 -48.1 M0.5 -48.1 C0.5 -48.1, 0.5 -48.1, 0.5 -48.1 M0.5 -48.1 C0.5 -48.1, 0.5 -48.1, 0.5 -48.1" stroke="#1e1e1e" stroke-width="2" fill="none"></path></g></g><mask></mask><g stroke-linecap="round"><g transform="translate(948.0552997325813 606.859864236998) rotate(0 1.2140129886401496 -26.547619047619037)"><path d="M0 0 C0.47 -15.79, -0.07 -32.1, 2.43 -53.1 M0 0 C1.2 -18.62, 2.22 -39.42, 2.43 -53.1" stroke="#1e1e1e" stroke-width="2" fill="none"></path></g><g transform="translate(948.0552997325813 606.859864236998) rotate(0 1.2140129886401496 -26.547619047619037)"><path d="M0.96 0.87 L-4.62 -11.98 L5.61 -13.91 L-0.49 -0.66" stroke="none" stroke-width="0" fill="#1e1e1e" fill-rule="evenodd"></path><path d="M0 0 C-2.13 -4.02, -4.88 -8.45, -5.99 -13.75 M0 0 C-1.9 -4.45, -3.98 -10.58, -5.99 -13.75 M-5.99 -13.75 C-2.3 -13.08, -0.47 -12.37, 6.68 -13.43 M-5.99 -13.75 C-2.78 -13.6, 0.98 -13.88, 6.68 -13.43 M6.68 -13.43 C5.28 -10.02, 3.22 -8.51, 0 0 M6.68 -13.43 C4.31 -8.24, 0.77 -2.83, 0 0 M0 0 C0 0, 0 0, 0 0 M0 0 C0 0, 0 0, 0 0" stroke="#1e1e1e" stroke-width="2" fill="none"></path></g><g transform="translate(948.0552997325813 606.859864236998) rotate(0 1.2140129886401496 -26.547619047619037)"><path d="M3.38 -52.23 L9.77 -37.56 L-5.35 -40.16 L1.94 -53.76" stroke="none" stroke-width="0" fill="#1e1e1e" fill-rule="evenodd"></path><path d="M2.43 -53.1 C3.73 -48.9, 4.56 -45.09, 8.39 -39.33 M2.43 -53.1 C4.91 -47.6, 7.18 -43.73, 8.39 -39.33 M8.39 -39.33 C5.53 -39.04, 0.82 -38.5, -4.29 -39.68 M8.39 -39.33 C5.06 -39.29, 2.27 -39.75, -4.29 -39.68 M-4.29 -39.68 C-2.41 -42.6, -1.26 -47.55, 2.43 -53.1 M-4.29 -39.68 C-1.31 -45.05, 0.4 -50.17, 2.43 -53.1 M2.43 -53.1 C2.43 -53.1, 2.43 -53.1, 2.43 -53.1 M2.43 -53.1 C2.43 -53.1, 2.43 -53.1, 2.43 -53.1" stroke="#1e1e1e" stroke-width="2" fill="none"></path></g></g><mask></mask><g stroke-linecap="round"><g transform="translate(949.3190738425408 721.5185014469179) rotate(0 -0.3452127119668944 -23.751937652579045)"><path d="M0 0 C0.14 -14.31, 0.33 -27.37, -0.69 -47.5 M0 0 C-0.47 -17.34, -0.33 -34.55, -0.69 -47.5" stroke="#1e1e1e" stroke-width="2" fill="none"></path></g><g transform="translate(949.3190738425408 721.5185014469179) rotate(0 -0.3452127119668944 -23.751937652579045)"><path d="M-0.02 -0.23 L-5.47 -13.95 L6.43 -13.91 L-0.68 -0.09" stroke="none" stroke-width="0" fill="#1e1e1e" fill-rule="evenodd"></path><path d="M0 0 C-1.48 -4.45, -3 -8, -6.37 -13.58 M0 0 C-2.5 -5.11, -4.5 -10.09, -6.37 -13.58 M-6.37 -13.58 C-2.19 -13.22, 0.7 -13.92, 6.31 -13.61 M-6.37 -13.58 C-2.15 -13.75, 2.7 -13.49, 6.31 -13.61 M6.31 -13.61 C5.01 -11.07, 2.71 -6.74, 0 0 M6.31 -13.61 C3.83 -8.87, 2.02 -3.31, 0 0 M0 0 C0 0, 0 0, 0 0 M0 0 C0 0, 0 0, 0 0" stroke="#1e1e1e" stroke-width="2" fill="none"></path></g><g transform="translate(949.3190738425408 721.5185014469179) rotate(0 -0.3452127119668944 -23.751937652579045)"><path d="M-0.71 -47.73 L6.78 -34.39 L-6.68 -34.1 L-1.37 -47.59" stroke="none" stroke-width="0" fill="#1e1e1e" fill-rule="evenodd"></path><path d="M-0.69 -47.5 C1.59 -44.34, 3.74 -40.21, 5.88 -34.02 M-0.69 -47.5 C1.4 -42.84, 4.05 -38.1, 5.88 -34.02 M5.88 -34.02 C2.73 -33.59, -1.72 -34.22, -6.8 -33.8 M5.88 -34.02 C1.23 -34.01, -2.79 -33.66, -6.8 -33.8 M-6.8 -33.8 C-5.26 -37.43, -4.77 -39.24, -0.69 -47.5 M-6.8 -33.8 C-4.83 -39.07, -2.09 -43.5, -0.69 -47.5 M-0.69 -47.5 C-0.69 -47.5, -0.69 -47.5, -0.69 -47.5 M-0.69 -47.5 C-0.69 -47.5, -0.69 -47.5, -0.69 -47.5" stroke="#1e1e1e" stroke-width="2" fill="none"></path></g></g><mask></mask><g stroke-linecap="round"><g transform="translate(1556.3059619306655 669.6313851874535) rotate(0 12.909553858342264 21.326947786373154)"><path d="M0 0 C5.81 8.61, 11.48 17.91, 25.82 42.65 M0 0 C8.88 14.22, 17.29 28.44, 25.82 42.65" stroke="#1e1e1e" stroke-width="2" fill="none"></path></g><g transform="translate(1556.3059619306655 669.6313851874535) rotate(0 12.909553858342264 21.326947786373154)"><path d="M-0.79 0.67 L11.87 8.84 L2.71 14.89 L0.93 0.49" stroke="none" stroke-width="0" fill="#1e1e1e" fill-rule="evenodd"></path><path d="M0 0 C2.98 1.5, 5.81 3.51, 12.56 8.2 M0 0 C4.31 2.74, 8.35 5.49, 12.56 8.2 M12.56 8.2 C8.92 10.9, 4.76 12.85, 1.79 14.89 M12.56 8.2 C10.29 9.32, 8.42 10.66, 1.79 14.89 M1.79 14.89 C1.65 10.66, 0.54 6.08, 0 0 M1.79 14.89 C0.89 10.09, 0.92 5.93, 0 0 M0 0 C0 0, 0 0, 0 0 M0 0 C0 0, 0 0, 0 0" stroke="#1e1e1e" stroke-width="2" fill="none"></path></g><g transform="translate(1556.3059619306655 669.6313851874535) rotate(0 12.909553858342264 21.326947786373154)"><path d="M25.03 43.32 L12.71 34.89 L25.19 27.73 L26.75 43.14" stroke="none" stroke-width="0" fill="#1e1e1e" fill-rule="evenodd"></path><path d="M25.82 42.65 C23.61 40.69, 21.23 39.24, 13.4 34.25 M25.82 42.65 C21.76 39.86, 17.48 37.08, 13.4 34.25 M13.4 34.25 C17.93 32.07, 21.91 29.06, 24.27 27.73 M13.4 34.25 C15.57 32.62, 18.11 31.27, 24.27 27.73 M24.27 27.73 C25.29 33.05, 25.25 38, 25.82 42.65 M24.27 27.73 C24.49 32.22, 25.55 37.35, 25.82 42.65 M25.82 42.65 C25.82 42.65, 25.82 42.65, 25.82 42.65 M25.82 42.65 C25.82 42.65, 25.82 42.65, 25.82 42.65" stroke="#1e1e1e" stroke-width="2" fill="none"></path></g></g><mask></mask><g stroke-linecap="round" transform="translate(1501.4261978377033 614.5230191615432) rotate(0 54.5 24.5)"><path d="M12.25 0 C45.52 2.92, 78.55 -0.37, 96.75 0 C106.96 1, 107.84 2.35, 109 12.25 C112.47 19.76, 111.15 27.95, 109 36.75 C111.78 47.61, 106.07 46.87, 96.75 49 C69.15 47.74, 37.63 49.7, 12.25 49 C5.83 50.75, -1.03 42.79, 0 36.75 C-0.17 23.49, 1.6 16.31, 0 12.25 C-0.25 5.44, 7.61 -2.67, 12.25 0" stroke="none" stroke-width="0" fill="#b2f2bb"></path><path d="M12.25 0 C39.54 0.48, 64.39 1.64, 96.75 0 M12.25 0 C37.08 0.05, 62.9 -0.62, 96.75 0 M96.75 0 C103.25 1.33, 109.72 5.08, 109 12.25 M96.75 0 C103.71 -2.22, 107.68 5.4, 109 12.25 M109 12.25 C106.93 19.53, 110.07 24.05, 109 36.75 M109 12.25 C110.14 21.26, 109.69 29.11, 109 36.75 M109 36.75 C107.38 44.06, 106.41 50.72, 96.75 49 M109 36.75 C110.79 43.22, 104.08 48.48, 96.75 49 M96.75 49 C70.52 46.65, 39.08 47.61, 12.25 49 M96.75 49 C75.4 49.98, 54.93 49.95, 12.25 49 M12.25 49 C5.91 49, 1.86 45.89, 0 36.75 M12.25 49 C1.98 47.7, -0.39 45.8, 0 36.75 M0 36.75 C-0.14 33.1, 0.06 25.06, 0 12.25 M0 36.75 C0.81 30.43, -0.88 26.49, 0 12.25 M0 12.25 C1.01 2.34, 4.75 -1.36, 12.25 0 M0 12.25 C-1.64 3.04, 3.08 1.69, 12.25 0" stroke="#1971c2" stroke-width="1" fill="none"></path></g><g transform="translate(1523.7511986006427 626.5230191615432) rotate(0 32.17499923706055 12.5)"><text x="32.17499923706055" y="0" font-family="Virgil, Segoe UI Emoji" font-size="20px" fill="#1e1e1e" text-anchor="middle" style="white-space: pre;" direction="ltr" dominant-baseline="text-before-edge">ETH 0</text></g><g stroke-linecap="round"><g transform="translate(1552.7757156655332 603.8147874175561) rotate(0 0.08524839994993272 -22.791768256012944)"><path d="M0 0 C-0.07 -13.94, 0.05 -28.55, 0.17 -45.58 M0 0 C-0.54 -13.62, 0.11 -27.66, 0.17 -45.58" stroke="#1e1e1e" stroke-width="2" fill="none"></path></g><g transform="translate(1552.7757156655332 603.8147874175561) rotate(0 0.08524839994993272 -22.791768256012944)"><path d="M0.93 0.49 L-7.22 -14.18 L6.2 -13.2 L-0.76 0.67" stroke="none" stroke-width="0" fill="#1e1e1e" fill-rule="evenodd"></path><path d="M0 0 C-2.03 -4.02, -3.95 -8.55, -6.31 -13.61 M0 0 C-2.3 -3.93, -3.78 -8.16, -6.31 -13.61 M-6.31 -13.61 C-2.81 -13.69, -0.58 -13.03, 6.37 -13.58 M-6.31 -13.61 C-4 -13.44, -0.84 -13.66, 6.37 -13.58 M6.37 -13.58 C3.16 -8.79, 1.01 -2.25, 0 0 M6.37 -13.58 C3.83 -8.45, 1.63 -2.88, 0 0 M0 0 C0 0, 0 0, 0 0 M0 0 C0 0, 0 0, 0 0" stroke="#1e1e1e" stroke-width="2" fill="none"></path></g><g transform="translate(1552.7757156655332 603.8147874175561) rotate(0 0.08524839994993272 -22.791768256012944)"><path d="M1.1 -45.1 L5.45 -32.49 L-6.48 -31.68 L-0.59 -44.92" stroke="none" stroke-width="0" fill="#1e1e1e" fill-rule="evenodd"></path><path d="M0.17 -45.58 C2.09 -41.14, 4.07 -37.17, 6.36 -31.92 M0.17 -45.58 C1.8 -41.13, 4.15 -37.01, 6.36 -31.92 M6.36 -31.92 C3.59 -32.11, -0.46 -31.5, -6.32 -32.06 M6.36 -31.92 C3.43 -31.71, 1.35 -31.96, -6.32 -32.06 M-6.32 -32.06 C-4.45 -38.04, -1.51 -42.23, 0.17 -45.58 M-6.32 -32.06 C-4 -37.34, -1.23 -42.23, 0.17 -45.58 M0.17 -45.58 C0.17 -45.58, 0.17 -45.58, 0.17 -45.58 M0.17 -45.58 C0.17 -45.58, 0.17 -45.58, 0.17 -45.58" stroke="#1e1e1e" stroke-width="2" fill="none"></path></g></g><mask></mask><g stroke-linecap="round" transform="translate(1687 616.3578801100139) rotate(0 54.5 24.5)"><path d="M12.25 0 C40.25 -2.59, 75.05 -3.93, 96.75 0 C107.16 -0.84, 109.72 6.27, 109 12.25 C106.02 17.9, 111.96 25.11, 109 36.75 C111.44 48.3, 105.31 47.73, 96.75 49 C74.99 51.01, 50.74 47.29, 12.25 49 C0.52 50.06, -0.85 46.6, 0 36.75 C-2.15 30.38, -0.79 22.56, 0 12.25 C-3.34 1.4, 3.96 -1.18, 12.25 0" stroke="none" stroke-width="0" fill="#b2f2bb"></path><path d="M12.25 0 C46.27 -1.42, 75.72 -0.27, 96.75 0 M12.25 0 C35.34 0.08, 60.12 0.41, 96.75 0 M96.75 0 C106.1 -0.29, 109.14 5.55, 109 12.25 M96.75 0 C106.06 1.8, 110.98 5.7, 109 12.25 M109 12.25 C109.15 19.37, 108.26 23.28, 109 36.75 M109 12.25 C108.9 19.38, 108.58 26.77, 109 36.75 M109 36.75 C107.05 46.12, 105.55 48.97, 96.75 49 M109 36.75 C109.84 42.76, 104.89 50.92, 96.75 49 M96.75 49 C64.41 50.48, 33.99 48.19, 12.25 49 M96.75 49 C68.77 49.37, 40.68 49.93, 12.25 49 M12.25 49 C3.37 49.79, -0.43 43.91, 0 36.75 M12.25 49 C3.65 49.5, 0.48 43.73, 0 36.75 M0 36.75 C-1.94 29.24, 1.28 18.61, 0 12.25 M0 36.75 C0.31 29.76, 0.24 20.58, 0 12.25 M0 12.25 C1.09 4.39, 3.04 -0.93, 12.25 0 M0 12.25 C0.03 1.91, 2.15 0.55, 12.25 0" stroke="#1971c2" stroke-width="1" fill="none"></path></g><g transform="translate(1710.1749992370605 628.3578801100139) rotate(0 31.325000762939453 12.5)"><text x="31.325000762939453" y="0" font-family="Virgil, Segoe UI Emoji" font-size="20px" fill="#1e1e1e" text-anchor="middle" style="white-space: pre;" direction="ltr" dominant-baseline="text-before-edge">CAN 0</text></g><g stroke-linecap="round" transform="translate(1671.3441621026795 478.34163695599455) rotate(0 65 33)"><path d="M16.5 0 C42.68 0.75, 65.09 3.77, 113.5 0 C124.49 -0.01, 131.68 2.52, 130 16.5 C132.93 28.23, 130.88 31.93, 130 49.5 C128.98 62.25, 124.24 67.2, 113.5 66 C75.13 66.28, 43.02 66.91, 16.5 66 C6.16 64.33, -0.89 58.15, 0 49.5 C-3.17 35.6, 0.04 25.9, 0 16.5 C-0.96 6.92, 5.76 0.51, 16.5 0" stroke="none" stroke-width="0" fill="#b2f2bb"></path><path d="M16.5 0 C35.88 0.29, 56.87 -0.75, 113.5 0 M16.5 0 C50.28 -0.87, 82.96 0.01, 113.5 0 M113.5 0 C125.49 1.56, 131.73 6.9, 130 16.5 M113.5 0 C122.84 0.99, 128.96 5.55, 130 16.5 M130 16.5 C130.11 27.94, 128.95 41.41, 130 49.5 M130 16.5 C128.93 25.28, 130.22 32.84, 130 49.5 M130 49.5 C130.73 58.63, 124.48 67.67, 113.5 66 M130 49.5 C131.5 61.59, 124.63 64.31, 113.5 66 M113.5 66 C78.15 66.73, 43.08 66.14, 16.5 66 M113.5 66 C87.24 66.62, 61.49 65.72, 16.5 66 M16.5 66 C5.12 66.44, 0.42 59.47, 0 49.5 M16.5 66 C6.99 66.88, 1.27 58.38, 0 49.5 M0 49.5 C0.21 37.8, 0.7 25.75, 0 16.5 M0 49.5 C0.44 36.78, -0.62 23.3, 0 16.5 M0 16.5 C0.02 3.61, 3.82 0.48, 16.5 0 M0 16.5 C1.46 4.9, 6.51 -1.74, 16.5 0" stroke="#1971c2" stroke-width="1" fill="none"></path></g><g transform="translate(1681.977497216205 486.34163695599455) rotate(0 54.36666488647461 25)"><text x="54.36666488647461" y="0" font-family="Virgil, Segoe UI Emoji" font-size="20px" fill="#1e1e1e" text-anchor="middle" style="white-space: pre;" direction="ltr" dominant-baseline="text-before-edge">openDUT </text><text x="54.36666488647461" y="25" font-family="Virgil, Segoe UI Emoji" font-size="20px" fill="#1e1e1e" text-anchor="middle" style="white-space: pre;" direction="ltr" dominant-baseline="text-before-edge">CAN Bridge</text></g><g stroke-linecap="round" transform="translate(1671.744149208394 347.4682531309985) rotate(0 67.5 35)"><path d="M17.5 0 C45.16 -1.1, 74.53 -4.07, 117.5 0 C127.48 2.96, 133.18 8.27, 135 17.5 C134.05 33.04, 134.81 46.28, 135 52.5 C137.12 64.08, 127.57 66.44, 117.5 70 C85.21 69.18, 50.72 68.49, 17.5 70 C7.26 69.01, 1.4 60.83, 0 52.5 C-0.93 46.03, 0.29 37.23, 0 17.5 C-1.36 7.67, 4.27 -0.42, 17.5 0" stroke="none" stroke-width="0" fill="#b2f2bb"></path><path d="M17.5 0 C47.91 1.7, 78.12 1.74, 117.5 0 M17.5 0 C46.54 0.05, 75.46 -0.03, 117.5 0 M117.5 0 C127.72 0.86, 134.1 5.88, 135 17.5 M117.5 0 C130.94 -0.97, 134.84 6.12, 135 17.5 M135 17.5 C133.8 25.65, 133.26 33.04, 135 52.5 M135 17.5 C135.48 29.17, 135.1 43.55, 135 52.5 M135 52.5 C136.31 65.12, 129.28 68.53, 117.5 70 M135 52.5 C136.65 63, 128.18 70.79, 117.5 70 M117.5 70 C81.11 71.19, 46.51 69.56, 17.5 70 M117.5 70 C83.36 69.72, 49.81 68.98, 17.5 70 M17.5 70 C7.13 70.77, 1.11 62.32, 0 52.5 M17.5 70 C7.47 71.58, -0.32 64.67, 0 52.5 M0 52.5 C1.64 41.65, -0.96 30.65, 0 17.5 M0 52.5 C0.2 40.53, -0.66 30.68, 0 17.5 M0 17.5 C1.27 5.31, 6.71 -1.51, 17.5 0 M0 17.5 C-1.23 6.71, 3.75 1.43, 17.5 0" stroke="#1971c2" stroke-width="1" fill="none"></path></g><g transform="translate(1695.094147682515 369.9682531309985) rotate(0 44.150001525878906 12.5)"><text x="44.150001525878906" y="0" font-family="Virgil, Segoe UI Emoji" font-size="20px" fill="#1e1e1e" text-anchor="middle" style="white-space: pre;" direction="ltr" dominant-baseline="text-before-edge">cannelloni</text></g><g stroke-linecap="round"><g transform="translate(1733.9147244957821 470.60245425138066) rotate(0 0.2763651463876613 -22.44750920788414)"><path d="M0 0 C-0.12 -15.95, 0.96 -31.54, 0.55 -44.9 M0 0 C-0.35 -16.76, 0 -33.94, 0.55 -44.9" stroke="#1e1e1e" stroke-width="2" fill="none"></path></g><g transform="translate(1733.9147244957821 470.60245425138066) rotate(0 0.2763651463876613 -22.44750920788414)"><path d="M0.55 -0.92 L-5.38 -13.02 L6.45 -13.26 L0.28 0.46" stroke="none" stroke-width="0" fill="#1e1e1e" fill-rule="evenodd"></path><path d="M0 0 C-2.33 -4.82, -3.85 -9.39, -6.09 -13.71 M0 0 C-2.63 -5, -4.83 -10.34, -6.09 -13.71 M-6.09 -13.71 C-1.23 -13.93, 3.18 -13.52, 6.59 -13.48 M-6.09 -13.71 C-3.26 -13.41, 0.29 -13.55, 6.59 -13.48 M6.59 -13.48 C4.93 -8.45, 2.45 -4.37, 0 0 M6.59 -13.48 C4.98 -10.31, 3.86 -7.07, 0 0 M0 0 C0 0, 0 0, 0 0 M0 0 C0 0, 0 0, 0 0" stroke="#1e1e1e" stroke-width="2" fill="none"></path></g><g transform="translate(1733.9147244957821 470.60245425138066) rotate(0 0.2763651463876613 -22.44750920788414)"><path d="M1.11 -45.82 L7.09 -30.38 L-6.43 -31.33 L0.83 -44.43" stroke="none" stroke-width="0" fill="#1e1e1e" fill-rule="evenodd"></path><path d="M0.55 -44.9 C2.57 -39.93, 5.31 -34.68, 6.37 -31.07 M0.55 -44.9 C2.54 -39.53, 4.84 -34.45, 6.37 -31.07 M6.37 -31.07 C1.68 -31.57, -3.46 -31.42, -6.3 -31.55 M6.37 -31.07 C2.93 -31.05, 0.2 -31.36, -6.3 -31.55 M-6.3 -31.55 C-3.3 -35.55, -1.27 -40.49, 0.55 -44.9 M-6.3 -31.55 C-4.95 -34.43, -3.02 -37.27, 0.55 -44.9 M0.55 -44.9 C0.55 -44.9, 0.55 -44.9, 0.55 -44.9 M0.55 -44.9 C0.55 -44.9, 0.55 -44.9, 0.55 -44.9" stroke="#1e1e1e" stroke-width="2" fill="none"></path></g></g><mask></mask><g stroke-linecap="round"><g transform="translate(1732.2401560224905 606.9054991576329) rotate(0 0.2117273818388128 -26.05574062462867)"><path d="M0 0 C1.7 -17.72, 1.94 -35.69, 0.42 -52.11 M0 0 C0.08 -19.27, 1.46 -39, 0.42 -52.11" stroke="#1e1e1e" stroke-width="2" fill="none"></path></g><g transform="translate(1732.2401560224905 606.9054991576329) rotate(0 0.2117273818388128 -26.05574062462867)"><path d="M1.43 1.37 L-6.13 -13.37 L7.37 -12.43 L0.75 1.8" stroke="none" stroke-width="0" fill="#1e1e1e" fill-rule="evenodd"></path><path d="M0 0 C-0.98 -4.21, -3.01 -8.62, -5.85 -13.81 M0 0 C-2.4 -5.07, -3.65 -10.52, -5.85 -13.81 M-5.85 -13.81 C-2.71 -13.59, 0.91 -13.86, 6.82 -13.36 M-5.85 -13.81 C-2.85 -13.8, -0.02 -14.28, 6.82 -13.36 M6.82 -13.36 C5.61 -9.24, 1.76 -4.26, 0 0 M6.82 -13.36 C5.49 -9.38, 3.57 -6.92, 0 0 M0 0 C0 0, 0 0, 0 0 M0 0 C0 0, 0 0, 0 0" stroke="#1e1e1e" stroke-width="2" fill="none"></path></g><g transform="translate(1732.2401560224905 606.9054991576329) rotate(0 0.2117273818388128 -26.05574062462867)"><path d="M1.85 -50.74 L6.87 -38.26 L-4.97 -37.41 L1.17 -50.31" stroke="none" stroke-width="0" fill="#1e1e1e" fill-rule="evenodd"></path><path d="M0.42 -52.11 C3.92 -46.56, 6.4 -41.19, 7.15 -38.7 M0.42 -52.11 C2.48 -47.16, 5.88 -42.53, 7.15 -38.7 M7.15 -38.7 C2.86 -38.64, -0.94 -38.93, -5.53 -38.34 M7.15 -38.7 C4.54 -38.56, 1.77 -39.06, -5.53 -38.34 M-5.53 -38.34 C-3.15 -42.41, -3.18 -45.54, 0.42 -52.11 M-5.53 -38.34 C-3.56 -41.18, -2.29 -45.48, 0.42 -52.11 M0.42 -52.11 C0.42 -52.11, 0.42 -52.11, 0.42 -52.11 M0.42 -52.11 C0.42 -52.11, 0.42 -52.11, 0.42 -52.11" stroke="#1e1e1e" stroke-width="2" fill="none"></path></g></g><mask></mask><g stroke-linecap="round"><g transform="translate(1682.838353529508 719.8783305851989) rotate(0 25.919127720748634 -23.448213475717353)"><path d="M0 0 C17.13 -12.93, 32.89 -30.5, 51.84 -46.9 M0 0 C18.76 -16.52, 35.69 -32.05, 51.84 -46.9" stroke="#1e1e1e" stroke-width="2" fill="none"></path></g><g transform="translate(1682.838353529508 719.8783305851989) rotate(0 25.919127720748634 -23.448213475717353)"><path d="M-0.28 0.44 L6.42 -12.88 L15.1 -2.58 L0.61 -0.8" stroke="none" stroke-width="0" fill="#1e1e1e" fill-rule="evenodd"></path><path d="M0 0 C2.87 -2.97, 4.55 -9.59, 5.86 -13.81 M0 0 C2.65 -5.05, 4.03 -9.38, 5.86 -13.81 M5.86 -13.81 C7.28 -11.83, 9.06 -10.34, 14.35 -4.38 M5.86 -13.81 C9.18 -11, 12 -6.49, 14.35 -4.38 M14.35 -4.38 C8.03 -1.7, 3.12 -1.82, 0 0 M14.35 -4.38 C9.78 -3.05, 5.11 -1.16, 0 0 M0 0 C0 0, 0 0, 0 0 M0 0 C0 0, 0 0, 0 0" stroke="#1e1e1e" stroke-width="2" fill="none"></path></g><g transform="translate(1682.838353529508 719.8783305851989) rotate(0 25.919127720748634 -23.448213475717353)"><path d="M51.56 -46.46 L46.66 -32.11 L38.29 -40.58 L52.45 -47.69" stroke="none" stroke-width="0" fill="#1e1e1e" fill-rule="evenodd"></path><path d="M51.84 -46.9 C51.35 -41.32, 49.47 -39.44, 46.11 -33.03 M51.84 -46.9 C50.39 -42.46, 47.79 -37.29, 46.11 -33.03 M46.11 -33.03 C43.35 -35.74, 40.87 -38.94, 37.54 -42.38 M46.11 -33.03 C43.22 -36.99, 39.89 -39.24, 37.54 -42.38 M37.54 -42.38 C41.64 -42.96, 47.21 -46.33, 51.84 -46.9 M37.54 -42.38 C42.5 -44.25, 47.42 -45.35, 51.84 -46.9 M51.84 -46.9 C51.84 -46.9, 51.84 -46.9, 51.84 -46.9 M51.84 -46.9 C51.84 -46.9, 51.84 -46.9, 51.84 -46.9" stroke="#1e1e1e" stroke-width="2" fill="none"></path></g></g><mask></mask><g stroke-linecap="round" transform="translate(251.5844155844161 200.2416139426574) rotate(0 79.5 36)"><path d="M18 0 C51.18 0.92, 79.56 0.05, 141 0 C154.32 -2.76, 159.41 6.09, 159 18 C160.03 30.09, 156.45 39.95, 159 54 C160.45 64.28, 151.09 72.66, 141 72 C108.01 73.31, 68.37 73.78, 18 72 C4.51 75.36, 2.85 65.2, 0 54 C-2.45 44.39, -2.61 29.12, 0 18 C-2.13 5.19, 7.12 -0.84, 18 0" stroke="none" stroke-width="0" fill="#b2f2bb"></path><path d="M18 0 C59.72 -0.74, 106.13 0.74, 141 0 M18 0 C43.81 0.59, 67.88 0.54, 141 0 M141 0 C153.8 1.18, 158.6 7.93, 159 18 M141 0 C152.68 -1.36, 159.28 5.06, 159 18 M159 18 C157.58 25.5, 160.06 32.57, 159 54 M159 18 C157.84 33.04, 157.98 46.16, 159 54 M159 54 C158.37 64.25, 153.37 73.83, 141 72 M159 54 C160.19 66.24, 151.51 72.22, 141 72 M141 72 C101.13 71.99, 56.44 72.71, 18 72 M141 72 C112.09 72.25, 81.14 70.51, 18 72 M18 72 C4.8 70.81, 1.78 66.06, 0 54 M18 72 C7.08 70.3, -1.67 66.88, 0 54 M0 54 C0.9 42.89, 0.49 29.43, 0 18 M0 54 C-0.09 45.31, -0.43 36.07, 0 18 M0 18 C-0.75 5.47, 7.62 1.57, 18 0 M0 18 C-1.81 6.53, 7.76 0.93, 18 0" stroke="#1971c2" stroke-width="1" fill="none"></path></g><g transform="translate(281.4344140585372 223.7416139426574) rotate(0 49.650001525878906 12.5)"><text x="49.650001525878906" y="0" font-family="Virgil, Segoe UI Emoji" font-size="20px" fill="#1e1e1e" text-anchor="middle" style="white-space: pre;" direction="ltr" dominant-baseline="text-before-edge">WireGuard</text></g><g stroke-linecap="round" transform="translate(1023.4535634495303 200.4593919114435) rotate(0 70 36)"><path d="M18 0 C57.22 -3.51, 94.2 -0.66, 122 0 C132.56 -2.44, 142.19 7.47, 140 18 C141.07 29.8, 137.71 45.7, 140 54 C139.36 65.57, 133.62 73.72, 122 72 C84.87 76.41, 53.57 72.25, 18 72 C6.38 72.03, -0.73 63.55, 0 54 C-1.66 40.81, 1.59 28.41, 0 18 C-1 2.79, 4.7 -0.13, 18 0" stroke="none" stroke-width="0" fill="#b2f2bb"></path><path d="M18 0 C44.17 -0.75, 73.02 1.32, 122 0 M18 0 C48 0.81, 76.99 1.18, 122 0 M122 0 C133.72 -1.18, 140.25 5.18, 140 18 M122 0 C131.96 1.75, 141.04 4.05, 140 18 M140 18 C141.97 26.83, 140.84 37.53, 140 54 M140 18 C139.44 31.34, 139.93 47.35, 140 54 M140 54 C141.04 66.21, 132.7 72.19, 122 72 M140 54 C140.84 66.79, 132.55 73.74, 122 72 M122 72 C85.66 71.16, 50.49 74.68, 18 72 M122 72 C80.47 70.57, 41.02 71.2, 18 72 M18 72 C6.94 70.52, -1.45 66.76, 0 54 M18 72 C7.11 72.49, -1.3 67.13, 0 54 M0 54 C-1.31 41.42, 1.46 27.36, 0 18 M0 54 C-0.27 43.18, 0.91 33.67, 0 18 M0 18 C-1.58 6.46, 7.53 0.81, 18 0 M0 18 C-1.14 5.18, 7.45 1.53, 18 0" stroke="#1971c2" stroke-width="1" fill="none"></path></g><g transform="translate(1043.803600070624 223.9593919114435) rotate(0 49.64996337890625 12.5)"><text x="49.64996337890625" y="0" font-family="Virgil, Segoe UI Emoji" font-size="20px" fill="#1e1e1e" text-anchor="middle" style="white-space: pre;" direction="ltr" dominant-baseline="text-before-edge">WireGuard</text></g><g stroke-linecap="round" transform="translate(1530.2584309197202 201.07611136082426) rotate(0 70 36)"><path d="M18 0 C39.78 -2.49, 66.63 1.42, 122 0 C136.72 -2.11, 143.22 7.45, 140 18 C139.02 26.64, 139.28 37.88, 140 54 C141.54 62.8, 136.01 70.51, 122 72 C81.48 71.61, 39.47 69.13, 18 72 C7.58 69.39, -2.52 63.87, 0 54 C-1.2 40.8, -1.5 33.89, 0 18 C1.41 6.82, 5.08 -0.18, 18 0" stroke="none" stroke-width="0" fill="#b2f2bb"></path><path d="M18 0 C47.35 -0.85, 76.9 -0.12, 122 0 M18 0 C55.18 -1.59, 92.76 -1.41, 122 0 M122 0 C132.22 1.52, 140.9 4.3, 140 18 M122 0 C133.88 0.9, 139.26 8.1, 140 18 M140 18 C142.03 24.21, 140.08 32.57, 140 54 M140 18 C140.59 25.75, 139.42 33.39, 140 54 M140 54 C140.73 66.69, 132.74 73.51, 122 72 M140 54 C140.88 63.94, 135.72 70.68, 122 72 M122 72 C101.09 72.69, 74.83 71.79, 18 72 M122 72 C97.45 71.29, 71.23 72.41, 18 72 M18 72 C6.96 72.43, -1.13 66.98, 0 54 M18 72 C7.64 72.65, 0.57 64.61, 0 54 M0 54 C-0.42 41.2, -1.66 28.79, 0 18 M0 54 C-1.08 44.39, 0.48 34.72, 0 18 M0 18 C-0.99 5.29, 7.26 1.33, 18 0 M0 18 C1.48 6, 6.92 0.84, 18 0" stroke="#1971c2" stroke-width="1" fill="none"></path></g><g transform="translate(1550.608467540814 224.57611136082426) rotate(0 49.64996337890625 12.5)"><text x="49.64996337890625" y="0" font-family="Virgil, Segoe UI Emoji" font-size="20px" fill="#1e1e1e" text-anchor="middle" style="white-space: pre;" direction="ltr" dominant-baseline="text-before-edge">WireGuard</text></g></svg>