<?xml version="1.0" encoding="UTF-8" standalone="no"?>
<svg
   width="894.11121"
   height="215.51762"
   viewBox="0 0 894.11121 215.51762"
   version="1.1"
   id="svg31"
   xmlns="http://www.w3.org/2000/svg"
   xmlns:svg="http://www.w3.org/2000/svg"
   xmlns:rdf="http://www.w3.org/1999/02/22-rdf-syntax-ns#"
   xmlns:cc="http://creativecommons.org/ns#"
   xmlns:dc="http://purl.org/dc/elements/1.1/">
  <defs
     id="defs35" />
  <title
     id="title2">Group 3</title>
  <g
     id="Page-2"
     stroke="none"
     stroke-width="1"
     fill="none"
     fill-rule="evenodd"
     transform="translate(-5.1089722,-22.68742)">
    <g
       id="Artboard-Copy-29"
       transform="translate(-36.261588,-139.90463)">
      <g
         id="Group-3"
         transform="translate(39.915448,141.628)">
        <g
           id="Group"
           transform="translate(1.4551123,57.953689)">
          <g
             id="Group-4">
            <path
               d="m 63.2707,0 c 1.643423,0 3.289323,0.04838104 4.933991,0.14493732 C 35.587505,2.1395837 10.706552,24.847087 10.706552,66.432 c 0,41.58491 24.880953,64.29242 57.497501,66.288 l 0.1647,-0.0107 C 66.669485,132.81235 64.968771,132.864 63.2707,132.864 27.777381,132.864 0,110.016 0,66.432 0,22.848 27.777381,0 63.2707,0 Z"
               id="Combined-Shape"
               fill="#ff9500"
               fill-rule="nonzero" />
            <g
               id="Group-3-Copy"
               transform="translate(14.51048)">
              <path
                 d="m 74.835409,39.258381 c 7.806765,0 14.135398,6.343567 14.135398,14.168755 0,7.825187 -6.328633,14.168754 -14.135398,14.168754 -2.586621,0 -5.010972,-0.696397 -7.096625,-1.912345 l -6.810172,6.826738 -0.0023,45.748567 c 0.435224,0.009 0.871957,0.0132 1.310123,0.0132 22.710336,0 41.569405,-11.75449 46.277105,-38.236123 l 15.02082,-0.0016 C 118.4393,114.75745 93.517942,132.864 62.236426,132.864 31.148006,132.864 6.0759565,114.75745 0.94548276,80.034319 l 15.01377624,0.0012 C 20.007272,102.80702 34.519067,114.689 52.945647,117.57156 l 3.05e-4,-47.438016 9.628678,-9.650604 c -1.192538,-2.077565 -1.874619,-4.486843 -1.874619,-7.055804 0,-7.825188 6.328633,-14.168755 14.135398,-14.168755 z M 62.236426,0 c 30.662541,0 55.214124,17.39708 60.972294,50.787986 l -15.0917,6.16e-4 c -1.26318,-5.973648 -3.27547,-11.156822 -5.90777,-15.58678 l -1e-5,39.80307 -9.74736,9.769197 c 1.120344,2.029939 1.7581,4.364721 1.7581,6.848811 0,7.825187 -6.328633,14.16876 -14.135398,14.16876 -7.806764,0 -14.135397,-6.343573 -14.135397,-14.16876 0,-7.825187 6.328633,-14.168755 14.135397,-14.168755 2.671371,0 5.169665,0.742779 7.300536,2.033533 l 6.841465,-6.859525 0.0011,-47.117064 C 85.810364,18.072071 74.593504,14.592 62.236426,14.592 c -2.43477,0 -4.825274,0.135105 -7.158819,0.408979 l 2.82e-4,34.205175 -9.449102,9.472232 c 1.081164,2.002785 1.695007,4.29615 1.695007,6.733224 0,7.825187 -6.328633,14.168755 -14.135397,14.168755 -7.806765,0 -14.135398,-6.343568 -14.135398,-14.168755 0,-7.825187 6.328633,-14.168755 14.135398,-14.168755 2.7165,0 5.254026,0.768088 7.408215,2.099418 l 6.498617,-6.513476 0.0016,-30.278522 C 32.024571,20.733236 20.382936,31.743652 16.355754,50.788985 L 1.273352,50.787986 C 7.0705251,17.39708 31.76316,0 62.236426,0 Z m 17.848156,87.054145 c -2.517313,0 -4.557998,2.045501 -4.557998,4.568755 0,2.523253 2.040685,4.568755 4.557998,4.568755 2.517314,0 4.557999,-2.045502 4.557999,-4.568755 0,-2.523254 -2.040685,-4.568755 -4.557999,-4.568755 z m 44.097808,-12.767584 -14.8946,5.14e-4 c 0.18175,-1.931461 0.29545,-3.931285 0.33789,-6.000391 l 14.8473,7.1e-5 c -0.0367,2.047095 -0.13424,4.047106 -0.29059,5.999806 z m -108.997367,6.7e-5 -14.89222193,-6.7e-5 C 0.1352929,72.333861 0.0369822,70.33385 0,68.286755 l 14.847159,-9.05e-4 c 0.04242,2.069243 0.156108,4.069196 0.337864,6.000778 z M 33.188397,60.842855 c -2.517314,0 -4.557999,2.045501 -4.557999,4.568755 0,2.523254 2.040685,4.568755 4.557999,4.568755 2.517313,0 4.557998,-2.045501 4.557998,-4.568755 0,-2.523254 -2.040685,-4.568755 -4.557998,-4.568755 z m 91.227363,1.694496 -14.85591,-4.56e-4 c -0.0916,-2.071984 -0.25685,-4.071622 -0.49229,-5.999902 l 14.92831,-5.65e-4 c 0.20071,1.951403 0.34139,3.951791 0.41989,6.000923 z m -109.502734,-10e-4 -14.8553521,10e-4 c 0.07909792,-2.049132 0.22084786,-4.04952 0.42301046,-6.000923 l 14.92463064,3.57e-4 c -0.235425,1.928164 -0.400664,3.927678 -0.492289,5.99953 z m 59.922383,-13.67797 c -2.517313,0 -4.557999,2.045501 -4.557999,4.568755 0,2.523253 2.040686,4.568755 4.557999,4.568755 2.517313,0 4.557999,-2.045502 4.557999,-4.568755 0,-2.523254 -2.040686,-4.568755 -4.557999,-4.568755 z"
                 id="path5"
                 fill="#2a1e56"
                 fill-rule="nonzero" />
              <g
                 id="Group-2"
                 transform="translate(65.949185,15.048453)" />
              <g
                 id="Group-2-Copy-2"
                 transform="translate(19.052999,5.530944)" />
              <g
                 id="Group-2-Copy"
                 transform="rotate(180,44.485403,65.000791)" />
            </g>
          </g>
          <path
             d="m 211.07774,5.728 c -16.44509,0 -28.84216,7.337043 -36.43221,22.51713 h -1.012 V 8.2580146 H 152.1284 V 178.528 h 22.51713 v -63.50337 h 1.01201 c 7.33704,14.16808 19.48111,20.74612 35.4202,20.74612 27.32416,0 51.1063,-22.26413 51.1063,-65.274375 C 262.18404,27.992129 238.4019,5.728 211.07774,5.728 Z m -4.30102,112.07965 c -19.48111,0 -32.63719,-16.9511 -32.63719,-47.058274 0,-30.107174 13.15608,-47.311274 32.63719,-47.311274 19.73411,0 32.38419,16.698097 32.38419,47.058273 0,30.613175 -12.65008,47.311275 -32.38419,47.311275 z"
             id="Shape-Copy-5"
             fill="#2a1e56"
             fill-rule="nonzero" />
          <path
             d="m 385.39575,66.701353 c 0,-37.191215 -20.74612,-60.973353 -52.1183,-60.973353 -32.13118,0 -55.40732,24.288141 -55.40732,65.274378 0,40.733232 23.78214,64.768372 57.93733,64.768372 18.72211,0 33.9022,-6.83104 45.79327,-20.49312 l -11.89107,-12.90307 c -8.85505,10.37306 -19.73411,15.68609 -32.38419,15.68609 -21.75812,0 -34.9142,-14.42108 -36.68521,-41.239239 h 84.50249 c 0.253,-3.036017 0.253,-7.084041 0.253,-10.120058 z m -52.1183,-43.263251 c 17.9631,0 28.58917,12.650074 30.10718,36.938214 h -62.49137 c 2.53002,-24.541142 14.67409,-36.938214 32.38419,-36.938214 z"
             id="Shape-Copy-6"
             fill="#2a1e56"
             fill-rule="nonzero" />
          <path
             d="m 464.75388,5.728 c -17.4571,0 -30.10718,7.843045 -36.68521,20.74612 h -1.26501 V 8.2580146 H 405.29853 V 133.24074 h 22.51713 V 58.858308 c 0,-22.011128 14.16809,-35.167204 30.61318,-35.167204 17.4571,0 23.27614,11.385066 23.27614,28.589165 v 80.960471 h 22.26413 V 47.473242 C 503.96911,21.667092 488.28301,5.728 464.75388,5.728 Z"
             id="Path-Copy-2"
             fill="#2a1e56"
             fill-rule="nonzero" />
        </g>
        <g
           id="DuT-Copy"
           transform="translate(1.9875589,178.99592)"
           fill="#ff9500"
           fill-rule="nonzero">
          <path
             d="m 578.44998,-157.89294 c 15.63186,0 29.39469,3.10088 41.2885,9.30265 11.8938,6.20177 21.23893,15.67434 28.0354,28.4177 6.79646,12.74337 10.19468,28.545134 10.19468,47.405311 0,18.860176 -3.39822,34.661946 -10.19468,47.405306 -6.79647,12.74337 -16.1416,22.2159296 -28.0354,28.4176996 -11.89381,6.2017701 -25.65664,9.3026604 -41.2885,9.3026604 H 527.47653 V -157.89294 Z m -2.2938,151.1362766 c 18.01062,0 32.19823,-5.4796396 42.56283,-16.4389296 10.3646,-10.9593 15.5469,-27.48319 15.5469,-49.571686 0,-22.088496 -5.1823,-38.612391 -15.5469,-49.571681 -10.3646,-10.95929 -24.55221,-16.43894 -42.56283,-16.43894 H 550.66945 V -6.7566634 Z"
             id="path21" />
          <path
             d="M 773.01374,-113.67324 V 12.231197 H 751.35003 V -6.1192534 h -1.27434 c -3.39823,6.62655 -8.24071,11.76638 -14.52743,15.4194701 -6.28673,3.6531003 -13.76283,5.4796513 -22.42832,5.4796513 -11.89381,0 -21.45133,-3.78053 -28.67257,-11.3415914 -7.22124,-7.56107 -10.83186,-17.7982286 -10.83186,-30.7115086 v -86.400008 h 22.42832 v 81.557538 c 0,9.17522 1.82655,16.26902 5.47965,21.281409 3.6531,5.0123896 9.64248,7.5185796 17.96814,7.5185796 8.66549,0 15.97168,-3.2283102 21.91858,-9.6849486 5.94691,-6.45664 8.92036,-15.03717 8.92036,-25.74159 v -74.930988 z"
             id="path23" />
          <polygon
             id="polygon25"
             points="363.86549,0 363.86549,19.115044 315.18584,19.115044 315.18584,170.25133 291.99292,170.25133 291.99292,19.115044 243.31327,19.115044 243.31327,0 "
             transform="translate(529.71325,-158.03187)" />
        </g>
      </g>
    </g>
  </g>
  <metadata
     id="metadata141">
    <rdf:RDF>
      <cc:Work
         rdf:about="">
        <dc:title>Group 3</dc:title>
      </cc:Work>
    </rdf:RDF>
  </metadata>
</svg>
