<?xml version="1.0" encoding="UTF-8"?>
<svg width="505px" height="333px" viewBox="0 0 505 333" version="1.1" xmlns="http://www.w3.org/2000/svg" xmlns:xlink="http://www.w3.org/1999/xlink">
    <title>Group 3</title>
    <g id="Page-2" stroke="none" stroke-width="1" fill="none" fill-rule="evenodd">
        <g id="Artboard-Copy-30" transform="translate(-39.000000, -141.000000)">
            <g id="Group-3" transform="translate(39.915448, 141.628000)">
                <g id="Group">
                    <path d="M63.2707004,0 C64.914123,0 66.5600225,0.0483810382 68.204691,0.14493732 C35.5875051,2.1395837 10.7065518,24.8470868 10.7065518,66.432 C10.7065518,108.016913 35.5875051,130.724416 68.2040529,132.719999 L68.3687534,132.709271 C66.6694849,132.812348 64.9687705,132.864 63.2707004,132.864 C27.7773807,132.864 0,110.016 0,66.432 C0,22.848 27.7773807,0 63.2707004,0 Z" id="Combined-Shape" fill="#FF9500" fill-rule="nonzero"></path>
                    <path d="M89.3458889,39.2583807 C97.1526536,39.2583807 103.481287,45.6019483 103.481287,53.4271356 C103.481287,61.2523228 97.1526536,67.5958905 89.3458889,67.5958905 C86.7592681,67.5958905 84.3349166,66.8994934 82.2492642,65.6835453 L75.4390922,72.5102832 L75.4367827,118.258852 C75.8720076,118.267624 76.30874,118.272 76.7469061,118.272 C99.4572419,118.272 118.316313,106.517513 123.024012,80.0358772 L138.044832,80.0343191 C132.949775,114.757452 108.028422,132.864 76.7469061,132.864 C45.6584863,132.864 20.5864365,114.757452 15.4559628,80.0343191 L30.4697392,80.0355336 C34.5177515,102.807017 49.0295476,114.689001 67.4561271,117.57156 L67.4564319,70.133544 L77.08511,60.4829396 C75.8925717,58.4053746 75.210491,55.9960973 75.210491,53.4271356 C75.210491,45.6019483 81.5391242,39.2583807 89.3458889,39.2583807 Z M76.7469061,0 C107.409447,0 131.961035,17.3970799 137.719197,50.7879862 L122.627497,50.7886021 C121.364316,44.8149538 119.352026,39.6317802 116.719731,35.2018222 L116.719724,75.0048923 L106.97236,84.7740891 C108.092704,86.8040285 108.73046,89.1388104 108.73046,91.6228998 C108.73046,99.448087 102.401827,105.791655 94.5950625,105.791655 C86.7882979,105.791655 80.4596647,99.448087 80.4596647,91.6228998 C80.4596647,83.7977126 86.7882979,77.4541449 94.5950625,77.4541449 C97.2664333,77.4541449 99.7647271,78.1969241 101.895598,79.4876778 L108.737063,72.6281531 L108.738211,25.5110886 C100.320844,18.0720712 89.1039839,14.592 76.7469061,14.592 C74.3121362,14.592 71.9216325,14.7271053 69.5880874,15.000979 L69.5883689,49.2061545 L60.1392672,58.6783856 C61.2204307,60.6811713 61.8342745,62.974536 61.8342745,65.4116099 C61.8342745,73.2367971 55.5056413,79.5803647 47.6988766,79.5803647 C39.892112,79.5803647 33.5634788,73.2367971 33.5634788,65.4116099 C33.5634788,57.5864226 39.892112,51.242855 47.6988766,51.242855 C50.4153769,51.242855 52.9529029,52.0109428 55.1070916,53.3422731 L61.6057086,46.8287966 L61.6073557,16.5502752 C46.5350513,20.7332357 34.8934156,31.743652 30.8662344,50.788985 L15.783832,50.7879862 C21.5810051,17.3970799 46.2736401,0 76.7469061,0 Z M94.5950625,87.0541449 C92.0777493,87.0541449 90.0370637,89.0996462 90.0370637,91.6228998 C90.0370637,94.1461534 92.0777493,96.1916547 94.5950625,96.1916547 C97.1123758,96.1916547 99.1530613,94.1461534 99.1530613,91.6228998 C99.1530613,89.0996462 97.1123758,87.0541449 94.5950625,87.0541449 Z M138.69287,74.2865607 L123.798268,74.2870753 C123.980023,72.3556138 124.093716,70.3557903 124.136156,68.2866842 L138.983463,68.2867552 C138.94677,70.3338503 138.849218,72.3338615 138.69287,74.2865607 Z M29.6955026,74.2866282 L14.8032811,74.2865607 C14.6457729,72.3338615 14.5474622,70.3338503 14.51048,68.2867552 L29.3576392,68.2858498 C29.4000626,70.3550931 29.5137473,72.3550456 29.6955026,74.2866282 Z M47.6988766,60.842855 C45.1815634,60.842855 43.1408778,62.8883562 43.1408778,65.4116099 C43.1408778,67.9348635 45.1815634,69.9803647 47.6988766,69.9803647 C50.2161899,69.9803647 52.2568754,67.9348635 52.2568754,65.4116099 C52.2568754,62.8883562 50.2161899,60.842855 47.6988766,60.842855 Z M138.926235,62.5373513 L124.070332,62.5368955 C123.978715,60.4649109 123.813477,58.4652731 123.578043,56.5369933 L138.506355,56.5364285 C138.707061,58.4878314 138.847743,60.4882189 138.926235,62.5373513 Z M29.4235059,62.5363155 L14.5681539,62.5373513 C14.6472518,60.4882189 14.7890018,58.4878314 14.9911644,56.5364285 L29.9157949,56.5367851 C29.6803695,58.4649493 29.5151311,60.4644631 29.4235059,62.5363155 Z M89.3458889,48.8583807 C86.8285757,48.8583807 84.7878901,50.9038819 84.7878901,53.4271356 C84.7878901,55.9503892 86.8285757,57.9958905 89.3458889,57.9958905 C91.8632021,57.9958905 93.9038877,55.9503892 93.9038877,53.4271356 C93.9038877,50.9038819 91.8632021,48.8583807 89.3458889,48.8583807 Z" id="Combined-Shape" fill="#6C54C6" fill-rule="nonzero"></path>
                    <g id="Group-2" transform="translate(80.459665, 15.048453)"></g>
                    <g id="Group-2-Copy-2" transform="translate(33.563479, 5.530944)"></g>
                    <g id="Group-2-Copy" transform="translate(85.248364, 84.629982) scale(-1, -1) translate(-85.248364, -84.629982) translate(67.015442, 39.258381)"></g>
                    <path d="M211.077743,5.728 C194.632648,5.728 182.235576,13.0650425 174.645532,28.2451303 L173.633527,28.2451303 L173.633527,8.25801464 L152.128402,8.25801464 L152.128402,178.528 L174.645532,178.528 L174.645532,115.024633 L175.657538,115.024633 C182.994581,129.192714 195.138651,135.770753 211.077743,135.770753 C238.401901,135.770753 262.184039,113.506624 262.184039,70.4963748 C262.184039,27.9921288 238.401901,5.728 211.077743,5.728 Z M206.776718,117.807649 C187.295606,117.807649 174.13953,100.856551 174.13953,70.7493763 C174.13953,40.642202 187.295606,23.4381025 206.776718,23.4381025 C226.510833,23.4381025 239.160906,40.1361991 239.160906,70.4963748 C239.160906,101.109552 226.510833,117.807649 206.776718,117.807649 Z" id="Shape-Copy-5" fill="#6C54C6" fill-rule="nonzero"></path>
                    <path d="M385.395752,66.7013529 C385.395752,29.5101376 364.649632,5.728 333.27745,5.728 C301.146265,5.728 277.87013,30.0161406 277.87013,71.0023777 C277.87013,111.735613 301.652267,135.770753 335.807465,135.770753 C354.529573,135.770753 369.709661,128.939713 381.60073,115.277634 L369.709661,102.374559 C360.85461,112.747619 349.975547,118.06065 337.325474,118.06065 C315.567348,118.06065 302.411272,103.639567 300.640262,76.8214114 L385.142751,76.8214114 C385.395752,73.7853939 385.395752,69.7373704 385.395752,66.7013529 Z M333.27745,23.4381025 C351.240554,23.4381025 361.866616,36.0881757 363.384625,60.3763163 L300.893263,60.3763163 C303.423278,35.8351742 315.567348,23.4381025 333.27745,23.4381025 Z" id="Shape-Copy-6" fill="#6C54C6" fill-rule="nonzero"></path>
                    <path d="M464.753878,5.728 C447.296777,5.728 434.646704,13.5710454 428.068666,26.4741201 L426.803658,26.4741201 L426.803658,8.25801464 L405.298534,8.25801464 L405.298534,133.240738 L427.815664,133.240738 L427.815664,58.8583075 C427.815664,36.8471801 441.983746,23.691104 458.428841,23.691104 C475.885942,23.691104 481.704976,35.0761698 481.704976,52.2802694 L481.704976,133.240738 L503.969105,133.240738 L503.969105,47.4732416 C503.969105,21.6670922 488.283014,5.728 464.753878,5.728 Z" id="Path-Copy-2" fill="#6C54C6" fill-rule="nonzero"></path>
                </g>
                <g id="DuT" transform="translate(8.200000, 159.380000)" fill="#FF9500" fill-rule="nonzero">
                    <path d="M50.9734513,0 C66.6053097,0 80.3681416,3.10088496 92.2619469,9.30265487 C104.155752,15.5044248 113.500885,24.9769912 120.297345,37.720354 C127.093805,50.4637168 130.492035,66.2654867 130.492035,85.1256637 C130.492035,103.985841 127.093805,119.787611 120.297345,132.530973 C113.500885,145.274336 104.155752,154.746903 92.2619469,160.948673 C80.3681416,167.150442 66.6053097,170.251327 50.9734513,170.251327 L0,170.251327 L0,0 L50.9734513,0 Z M48.679646,151.136283 C66.6902655,151.136283 80.8778761,145.656637 91.2424779,134.697345 C101.60708,123.738053 106.789381,107.214159 106.789381,85.1256637 C106.789381,63.0371681 101.60708,46.5132743 91.2424779,35.5539823 C80.8778761,24.5946903 66.6902655,19.1150442 48.679646,19.1150442 L23.1929204,19.1150442 L23.1929204,151.136283 L48.679646,151.136283 Z" id="Shape"></path>
                    <path d="M243.313274,44.3469027 L243.313274,170.251327 L221.649558,170.251327 L221.649558,151.900885 L220.375221,151.900885 C216.976991,158.527434 212.134513,163.667257 205.847788,167.320354 C199.561062,170.973451 192.084956,172.8 183.419469,172.8 C171.525664,172.8 161.968142,169.019469 154.746903,161.458407 C147.525664,153.897345 143.915044,143.660177 143.915044,130.746903 L143.915044,44.3469027 L166.343363,44.3469027 L166.343363,125.904425 C166.343363,135.079646 168.169912,142.173451 171.823009,147.185841 C175.476106,152.19823 181.465487,154.704425 189.79115,154.704425 C198.456637,154.704425 205.762832,151.476106 211.709735,145.019469 C217.656637,138.562832 220.630088,129.982301 220.630088,119.277876 L220.630088,44.3469027 L243.313274,44.3469027 Z" id="Path"></path>
                    <polygon id="Path" points="363.865487 19.1150442 315.185841 19.1150442 315.185841 170.251327 291.99292 170.251327 291.99292 19.1150442 243.313274 19.1150442 243.313274 0 363.865487 0"></polygon>
                </g>
                <g id="DuT-Copy" transform="translate(8.200000, 159.380000)" fill="#FF9500" fill-rule="nonzero">
                    <path d="M50.9734513,0 C66.6053097,0 80.3681416,3.10088496 92.2619469,9.30265487 C104.155752,15.5044248 113.500885,24.9769912 120.297345,37.720354 C127.093805,50.4637168 130.492035,66.2654867 130.492035,85.1256637 C130.492035,103.985841 127.093805,119.787611 120.297345,132.530973 C113.500885,145.274336 104.155752,154.746903 92.2619469,160.948673 C80.3681416,167.150442 66.6053097,170.251327 50.9734513,170.251327 L0,170.251327 L0,0 L50.9734513,0 Z M48.679646,151.136283 C66.6902655,151.136283 80.8778761,145.656637 91.2424779,134.697345 C101.60708,123.738053 106.789381,107.214159 106.789381,85.1256637 C106.789381,63.0371681 101.60708,46.5132743 91.2424779,35.5539823 C80.8778761,24.5946903 66.6902655,19.1150442 48.679646,19.1150442 L23.1929204,19.1150442 L23.1929204,151.136283 L48.679646,151.136283 Z" id="Shape"></path>
                    <path d="M243.313274,44.3469027 L243.313274,170.251327 L221.649558,170.251327 L221.649558,151.900885 L220.375221,151.900885 C216.976991,158.527434 212.134513,163.667257 205.847788,167.320354 C199.561062,170.973451 192.084956,172.8 183.419469,172.8 C171.525664,172.8 161.968142,169.019469 154.746903,161.458407 C147.525664,153.897345 143.915044,143.660177 143.915044,130.746903 L143.915044,44.3469027 L166.343363,44.3469027 L166.343363,125.904425 C166.343363,135.079646 168.169912,142.173451 171.823009,147.185841 C175.476106,152.19823 181.465487,154.704425 189.79115,154.704425 C198.456637,154.704425 205.762832,151.476106 211.709735,145.019469 C217.656637,138.562832 220.630088,129.982301 220.630088,119.277876 L220.630088,44.3469027 L243.313274,44.3469027 Z" id="Path"></path>
                    <polygon id="Path" points="363.865487 19.1150442 315.185841 19.1150442 315.185841 170.251327 291.99292 170.251327 291.99292 19.1150442 243.313274 19.1150442 243.313274 0 363.865487 0"></polygon>
                </g>
            </g>
        </g>
    </g>
</svg>