<?xml version="1.0" encoding="UTF-8" standalone="no"?>
<svg
   width="180"
   height="180"
   viewBox="0 0 149.99999 149.99996"
   version="1.1"
   id="svg452"
   sodipodi:docname="logo_o_onlight.svg"
   inkscape:version="1.2.2 (b0a8486541, 2022-12-01)"
   xmlns:inkscape="http://www.inkscape.org/namespaces/inkscape"
   xmlns:sodipodi="http://sodipodi.sourceforge.net/DTD/sodipodi-0.dtd"
   xmlns="http://www.w3.org/2000/svg"
   xmlns:svg="http://www.w3.org/2000/svg"
   xmlns:rdf="http://www.w3.org/1999/02/22-rdf-syntax-ns#"
   xmlns:cc="http://creativecommons.org/ns#"
   xmlns:dc="http://purl.org/dc/elements/1.1/">
  <defs
     id="defs456" />
  <sodipodi:namedview
     id="namedview454"
     pagecolor="#ffffff"
     bordercolor="#000000"
     borderopacity="0.25"
     inkscape:showpageshadow="2"
     inkscape:pageopacity="0.0"
     inkscape:pagecheckerboard="0"
     inkscape:deskcolor="#d1d1d1"
     showgrid="false"
     inkscape:zoom="2.5821782"
     inkscape:cx="250.95092"
     inkscape:cy="112.88919"
     inkscape:window-width="1920"
     inkscape:window-height="1002"
     inkscape:window-x="1920"
     inkscape:window-y="0"
     inkscape:window-maximized="1"
     inkscape:current-layer="Artboard-Copy-29" />
  <title
     id="title423">Group 3</title>
  <g
     id="Page-2"
     stroke="none"
     stroke-width="1"
     fill="none"
     fill-rule="evenodd">
    <g
       id="Artboard-Copy-29"
       transform="translate(-39,-141)">
      <g
         id="Group-3"
         transform="translate(44.433597,150.01884)">
        <g
           id="Group">
          <g
             id="Group-4">
            <path
               d="m 63.2707,0 c 1.643423,0 3.289323,0.04838104 4.933991,0.14493732 C 35.587505,2.1395837 10.706552,24.847087 10.706552,66.432 c 0,41.58491 24.880953,64.29242 57.497501,66.288 l 0.1647,-0.0107 C 66.669485,132.81235 64.968771,132.864 63.2707,132.864 27.777381,132.864 0,110.016 0,66.432 0,22.848 27.777381,0 63.2707,0 Z"
               id="Combined-Shape"
               fill="#ff9500"
               fill-rule="nonzero" />
            <g
               id="Group-3-Copy"
               transform="translate(14.51048)">
              <path
                 d="m 74.835409,39.258381 c 7.806765,0 14.135398,6.343567 14.135398,14.168755 0,7.825187 -6.328633,14.168754 -14.135398,14.168754 -2.586621,0 -5.010972,-0.696397 -7.096625,-1.912345 l -6.810172,6.826738 -0.0023,45.748567 c 0.435224,0.009 0.871957,0.0132 1.310123,0.0132 22.710336,0 41.569405,-11.75449 46.277105,-38.236123 l 15.02082,-0.0016 C 118.4393,114.75745 93.517942,132.864 62.236426,132.864 31.148006,132.864 6.0759565,114.75745 0.94548276,80.034319 l 15.01377624,0.0012 C 20.007272,102.80702 34.519067,114.689 52.945647,117.57156 l 3.05e-4,-47.438016 9.628678,-9.650604 c -1.192538,-2.077565 -1.874619,-4.486843 -1.874619,-7.055804 0,-7.825188 6.328633,-14.168755 14.135398,-14.168755 z M 62.236426,0 c 30.662541,0 55.214124,17.39708 60.972294,50.787986 l -15.0917,6.16e-4 c -1.26318,-5.973648 -3.27547,-11.156822 -5.90777,-15.58678 l -1e-5,39.80307 -9.74736,9.769197 c 1.120344,2.029939 1.7581,4.364721 1.7581,6.848811 0,7.825187 -6.328633,14.16876 -14.135398,14.16876 -7.806764,0 -14.135397,-6.343573 -14.135397,-14.16876 0,-7.825187 6.328633,-14.168755 14.135397,-14.168755 2.671371,0 5.169665,0.742779 7.300536,2.033533 l 6.841465,-6.859525 0.0011,-47.117064 C 85.810364,18.072071 74.593504,14.592 62.236426,14.592 c -2.43477,0 -4.825274,0.135105 -7.158819,0.408979 l 2.82e-4,34.205175 -9.449102,9.472232 c 1.081164,2.002785 1.695007,4.29615 1.695007,6.733224 0,7.825187 -6.328633,14.168755 -14.135397,14.168755 -7.806765,0 -14.135398,-6.343568 -14.135398,-14.168755 0,-7.825187 6.328633,-14.168755 14.135398,-14.168755 2.7165,0 5.254026,0.768088 7.408215,2.099418 l 6.498617,-6.513476 0.0016,-30.278522 C 32.024571,20.733236 20.382936,31.743652 16.355754,50.788985 L 1.273352,50.787986 C 7.0705251,17.39708 31.76316,0 62.236426,0 Z m 17.848156,87.054145 c -2.517313,0 -4.557998,2.045501 -4.557998,4.568755 0,2.523253 2.040685,4.568755 4.557998,4.568755 2.517314,0 4.557999,-2.045502 4.557999,-4.568755 0,-2.523254 -2.040685,-4.568755 -4.557999,-4.568755 z m 44.097808,-12.767584 -14.8946,5.14e-4 c 0.18175,-1.931461 0.29545,-3.931285 0.33789,-6.000391 l 14.8473,7.1e-5 c -0.0367,2.047095 -0.13424,4.047106 -0.29059,5.999806 z m -108.997367,6.7e-5 -14.89222193,-6.7e-5 C 0.1352929,72.333861 0.0369822,70.33385 0,68.286755 l 14.847159,-9.05e-4 c 0.04242,2.069243 0.156108,4.069196 0.337864,6.000778 z M 33.188397,60.842855 c -2.517314,0 -4.557999,2.045501 -4.557999,4.568755 0,2.523254 2.040685,4.568755 4.557999,4.568755 2.517313,0 4.557998,-2.045501 4.557998,-4.568755 0,-2.523254 -2.040685,-4.568755 -4.557998,-4.568755 z m 91.227363,1.694496 -14.85591,-4.56e-4 c -0.0916,-2.071984 -0.25685,-4.071622 -0.49229,-5.999902 l 14.92831,-5.65e-4 c 0.20071,1.951403 0.34139,3.951791 0.41989,6.000923 z m -109.502734,-10e-4 -14.8553521,10e-4 c 0.07909792,-2.049132 0.22084786,-4.04952 0.42301046,-6.000923 l 14.92463064,3.57e-4 c -0.235425,1.928164 -0.400664,3.927678 -0.492289,5.99953 z m 59.922383,-13.67797 c -2.517313,0 -4.557999,2.045501 -4.557999,4.568755 0,2.523253 2.040686,4.568755 4.557999,4.568755 2.517313,0 4.557999,-2.045502 4.557999,-4.568755 0,-2.523254 -2.040686,-4.568755 -4.557999,-4.568755 z"
                 id="path426"
                 fill="#2a1e56"
                 fill-rule="nonzero" />
              <g
                 id="Group-2"
                 transform="translate(65.949185,15.048453)" />
              <g
                 id="Group-2-Copy-2"
                 transform="translate(19.052999,5.530944)" />
              <g
                 id="Group-2-Copy"
                 transform="rotate(180,44.485403,65.000791)" />
            </g>
          </g>
        </g>
        <g
           id="DuT"
           transform="translate(8.2,159.38)"
           fill="#ff9500"
           fill-rule="nonzero" />
        <g
           id="DuT-Copy"
           transform="translate(8.2,159.38)"
           fill="#ff9500"
           fill-rule="nonzero" />
      </g>
    </g>
  </g>
  <metadata
     id="metadata1297">
    <rdf:RDF>
      <cc:Work
         rdf:about="">
        <dc:title>Group 3</dc:title>
      </cc:Work>
    </rdf:RDF>
  </metadata>
</svg>
