<?xml version="1.0" encoding="UTF-8"?>
<svg width="505px" height="333px" viewBox="0 0 505 333" version="1.1" xmlns="http://www.w3.org/2000/svg" xmlns:xlink="http://www.w3.org/1999/xlink">
    <title>Group 3</title>
    <g id="Page-2" stroke="none" stroke-width="1" fill="none" fill-rule="evenodd">
        <g id="Artboard-Copy-29" transform="translate(-39.000000, -141.000000)">
            <g id="Group-3" transform="translate(39.915448, 141.628000)">
                <g id="Group">
                    <g id="Group-4">
                        <path d="M63.2707004,0 C64.914123,0 66.5600225,0.0483810382 68.204691,0.14493732 C35.5875051,2.1395837 10.7065518,24.8470868 10.7065518,66.432 C10.7065518,108.016913 35.5875051,130.724416 68.2040529,132.719999 L68.3687534,132.709271 C66.6694849,132.812348 64.9687705,132.864 63.2707004,132.864 C27.7773807,132.864 0,110.016 0,66.432 C0,22.848 27.7773807,0 63.2707004,0 Z" id="Combined-Shape" fill="#FF9500" fill-rule="nonzero"></path>
                        <g id="Group-3-Copy" transform="translate(14.510480, 0.000000)">
                            <path d="M74.8354089,39.2583807 C82.6421736,39.2583807 88.9708068,45.6019483 88.9708068,53.4271356 C88.9708068,61.2523228 82.6421736,67.5958905 74.8354089,67.5958905 C72.2487881,67.5958905 69.8244366,66.8994934 67.7387842,65.6835453 L60.9286122,72.5102832 L60.9263026,118.258852 C61.3615275,118.267624 61.79826,118.272 62.2364261,118.272 C84.9467619,118.272 103.805833,106.517513 108.513532,80.0358772 L123.534352,80.0343191 C118.439295,114.757452 93.5179418,132.864 62.2364261,132.864 C31.1480062,132.864 6.0759565,114.757452 0.945482757,80.0343191 L15.9592592,80.0355336 C20.0072715,102.807017 34.5190675,114.689001 52.9456471,117.57156 L52.9459519,70.133544 L62.57463,60.4829396 C61.3820917,58.4053746 60.700011,55.9960973 60.700011,53.4271356 C60.700011,45.6019483 67.0286442,39.2583807 74.8354089,39.2583807 Z M62.2364261,0 C92.8989671,0 117.450555,17.3970799 123.208717,50.7879862 L108.117017,50.7886021 C106.853836,44.8149538 104.841546,39.6317802 102.209251,35.2018222 L102.209244,75.0048923 L92.4618796,84.7740891 C93.5822239,86.8040285 94.2199804,89.1388104 94.2199804,91.6228998 C94.2199804,99.448087 87.8913472,105.791655 80.0845825,105.791655 C72.2778178,105.791655 65.9491846,99.448087 65.9491846,91.6228998 C65.9491846,83.7977126 72.2778178,77.4541449 80.0845825,77.4541449 C82.7559533,77.4541449 85.2542471,78.1969241 87.3851179,79.4876778 L94.2265834,72.6281531 L94.2277307,25.5110886 C85.8103637,18.0720712 74.5935038,14.592 62.2364261,14.592 C59.8016562,14.592 57.4111525,14.7271053 55.0776074,15.000979 L55.0778889,49.2061545 L45.6287871,58.6783856 C46.7099507,60.6811713 47.3237945,62.974536 47.3237945,65.4116099 C47.3237945,73.2367971 40.9951613,79.5803647 33.1883966,79.5803647 C25.3816319,79.5803647 19.0529987,73.2367971 19.0529987,65.4116099 C19.0529987,57.5864226 25.3816319,51.242855 33.1883966,51.242855 C35.9048968,51.242855 38.4424229,52.0109428 40.5966116,53.3422731 L47.0952286,46.8287966 L47.0968757,16.5502752 C32.0245713,20.7332357 20.3829356,31.743652 16.3557543,50.788985 L1.27335196,50.7879862 C7.0705251,17.3970799 31.7631601,0 62.2364261,0 Z M80.0845825,87.0541449 C77.5672693,87.0541449 75.5265837,89.0996462 75.5265837,91.6228998 C75.5265837,94.1461534 77.5672693,96.1916547 80.0845825,96.1916547 C82.6018957,96.1916547 84.6425813,94.1461534 84.6425813,91.6228998 C84.6425813,89.0996462 82.6018957,87.0541449 80.0845825,87.0541449 Z M124.18239,74.2865607 L109.287788,74.2870753 C109.469543,72.3556138 109.583236,70.3557903 109.625676,68.2866842 L124.472983,68.2867552 C124.43629,70.3338503 124.338738,72.3338615 124.18239,74.2865607 Z M15.1850226,74.2866282 L0.292801072,74.2865607 C0.135292905,72.3338615 0.036982197,70.3338503 4.18935719e-15,68.2867552 L14.8471592,68.2858498 C14.8895826,70.3550931 15.0032672,72.3550456 15.1850226,74.2866282 Z M33.1883966,60.842855 C30.6710834,60.842855 28.6303978,62.8883562 28.6303978,65.4116099 C28.6303978,67.9348635 30.6710834,69.9803647 33.1883966,69.9803647 C35.7057098,69.9803647 37.7463954,67.9348635 37.7463954,65.4116099 C37.7463954,62.8883562 35.7057098,60.842855 33.1883966,60.842855 Z M124.415755,62.5373513 L109.559852,62.5368955 C109.468235,60.4649109 109.302997,58.4652731 109.067563,56.5369933 L123.995875,56.5364285 C124.196581,58.4878314 124.337263,60.4882189 124.415755,62.5373513 Z M14.9130259,62.5363155 L0.0576738988,62.5373513 C0.136771819,60.4882189 0.278521762,58.4878314 0.480684363,56.5364285 L15.4053149,56.5367851 C15.1698895,58.4649493 15.0046511,60.4644631 14.9130259,62.5363155 Z M74.8354089,48.8583807 C72.3180957,48.8583807 70.2774101,50.9038819 70.2774101,53.4271356 C70.2774101,55.9503892 72.3180957,57.9958905 74.8354089,57.9958905 C77.3527221,57.9958905 79.3934077,55.9503892 79.3934077,53.4271356 C79.3934077,50.9038819 77.3527221,48.8583807 74.8354089,48.8583807 Z" id="Combined-Shape" fill="#2A1E56" fill-rule="nonzero"></path>
                            <g id="Group-2" transform="translate(65.949185, 15.048453)"></g>
                            <g id="Group-2-Copy-2" transform="translate(19.052999, 5.530944)"></g>
                            <g id="Group-2-Copy" transform="translate(70.737884, 84.629982) scale(-1, -1) translate(-70.737884, -84.629982) translate(52.504962, 39.258381)"></g>
                        </g>
                    </g>
                    <path d="M211.077743,5.728 C194.632648,5.728 182.235576,13.0650425 174.645532,28.2451303 L173.633527,28.2451303 L173.633527,8.25801464 L152.128402,8.25801464 L152.128402,178.528 L174.645532,178.528 L174.645532,115.024633 L175.657538,115.024633 C182.994581,129.192714 195.138651,135.770753 211.077743,135.770753 C238.401901,135.770753 262.184039,113.506624 262.184039,70.4963748 C262.184039,27.9921288 238.401901,5.728 211.077743,5.728 Z M206.776718,117.807649 C187.295606,117.807649 174.13953,100.856551 174.13953,70.7493763 C174.13953,40.642202 187.295606,23.4381025 206.776718,23.4381025 C226.510833,23.4381025 239.160906,40.1361991 239.160906,70.4963748 C239.160906,101.109552 226.510833,117.807649 206.776718,117.807649 Z" id="Shape-Copy-5" fill="#2A1E56" fill-rule="nonzero"></path>
                    <path d="M385.395752,66.7013529 C385.395752,29.5101376 364.649632,5.728 333.27745,5.728 C301.146265,5.728 277.87013,30.0161406 277.87013,71.0023777 C277.87013,111.735613 301.652267,135.770753 335.807465,135.770753 C354.529573,135.770753 369.709661,128.939713 381.60073,115.277634 L369.709661,102.374559 C360.85461,112.747619 349.975547,118.06065 337.325474,118.06065 C315.567348,118.06065 302.411272,103.639567 300.640262,76.8214114 L385.142751,76.8214114 C385.395752,73.7853939 385.395752,69.7373704 385.395752,66.7013529 Z M333.27745,23.4381025 C351.240554,23.4381025 361.866616,36.0881757 363.384625,60.3763163 L300.893263,60.3763163 C303.423278,35.8351742 315.567348,23.4381025 333.27745,23.4381025 Z" id="Shape-Copy-6" fill="#2A1E56" fill-rule="nonzero"></path>
                    <path d="M464.753878,5.728 C447.296777,5.728 434.646704,13.5710454 428.068666,26.4741201 L426.803658,26.4741201 L426.803658,8.25801464 L405.298534,8.25801464 L405.298534,133.240738 L427.815664,133.240738 L427.815664,58.8583075 C427.815664,36.8471801 441.983746,23.691104 458.428841,23.691104 C475.885942,23.691104 481.704976,35.0761698 481.704976,52.2802694 L481.704976,133.240738 L503.969105,133.240738 L503.969105,47.4732416 C503.969105,21.6670922 488.283014,5.728 464.753878,5.728 Z" id="Path-Copy-2" fill="#2A1E56" fill-rule="nonzero"></path>
                </g>
                <g id="DuT" transform="translate(8.200000, 159.380000)" fill="#FF9500" fill-rule="nonzero">
                    <path d="M50.9734513,0 C66.6053097,0 80.3681416,3.10088496 92.2619469,9.30265487 C104.155752,15.5044248 113.500885,24.9769912 120.297345,37.720354 C127.093805,50.4637168 130.492035,66.2654867 130.492035,85.1256637 C130.492035,103.985841 127.093805,119.787611 120.297345,132.530973 C113.500885,145.274336 104.155752,154.746903 92.2619469,160.948673 C80.3681416,167.150442 66.6053097,170.251327 50.9734513,170.251327 L0,170.251327 L0,0 L50.9734513,0 Z M48.679646,151.136283 C66.6902655,151.136283 80.8778761,145.656637 91.2424779,134.697345 C101.60708,123.738053 106.789381,107.214159 106.789381,85.1256637 C106.789381,63.0371681 101.60708,46.5132743 91.2424779,35.5539823 C80.8778761,24.5946903 66.6902655,19.1150442 48.679646,19.1150442 L23.1929204,19.1150442 L23.1929204,151.136283 L48.679646,151.136283 Z" id="Shape"></path>
                    <path d="M243.313274,44.3469027 L243.313274,170.251327 L221.649558,170.251327 L221.649558,151.900885 L220.375221,151.900885 C216.976991,158.527434 212.134513,163.667257 205.847788,167.320354 C199.561062,170.973451 192.084956,172.8 183.419469,172.8 C171.525664,172.8 161.968142,169.019469 154.746903,161.458407 C147.525664,153.897345 143.915044,143.660177 143.915044,130.746903 L143.915044,44.3469027 L166.343363,44.3469027 L166.343363,125.904425 C166.343363,135.079646 168.169912,142.173451 171.823009,147.185841 C175.476106,152.19823 181.465487,154.704425 189.79115,154.704425 C198.456637,154.704425 205.762832,151.476106 211.709735,145.019469 C217.656637,138.562832 220.630088,129.982301 220.630088,119.277876 L220.630088,44.3469027 L243.313274,44.3469027 Z" id="Path"></path>
                    <polygon id="Path" points="363.865487 19.1150442 315.185841 19.1150442 315.185841 170.251327 291.99292 170.251327 291.99292 19.1150442 243.313274 19.1150442 243.313274 0 363.865487 0"></polygon>
                </g>
                <g id="DuT-Copy" transform="translate(8.200000, 159.380000)" fill="#FF9500" fill-rule="nonzero">
                    <path d="M50.9734513,0 C66.6053097,0 80.3681416,3.10088496 92.2619469,9.30265487 C104.155752,15.5044248 113.500885,24.9769912 120.297345,37.720354 C127.093805,50.4637168 130.492035,66.2654867 130.492035,85.1256637 C130.492035,103.985841 127.093805,119.787611 120.297345,132.530973 C113.500885,145.274336 104.155752,154.746903 92.2619469,160.948673 C80.3681416,167.150442 66.6053097,170.251327 50.9734513,170.251327 L0,170.251327 L0,0 L50.9734513,0 Z M48.679646,151.136283 C66.6902655,151.136283 80.8778761,145.656637 91.2424779,134.697345 C101.60708,123.738053 106.789381,107.214159 106.789381,85.1256637 C106.789381,63.0371681 101.60708,46.5132743 91.2424779,35.5539823 C80.8778761,24.5946903 66.6902655,19.1150442 48.679646,19.1150442 L23.1929204,19.1150442 L23.1929204,151.136283 L48.679646,151.136283 Z" id="Shape"></path>
                    <path d="M243.313274,44.3469027 L243.313274,170.251327 L221.649558,170.251327 L221.649558,151.900885 L220.375221,151.900885 C216.976991,158.527434 212.134513,163.667257 205.847788,167.320354 C199.561062,170.973451 192.084956,172.8 183.419469,172.8 C171.525664,172.8 161.968142,169.019469 154.746903,161.458407 C147.525664,153.897345 143.915044,143.660177 143.915044,130.746903 L143.915044,44.3469027 L166.343363,44.3469027 L166.343363,125.904425 C166.343363,135.079646 168.169912,142.173451 171.823009,147.185841 C175.476106,152.19823 181.465487,154.704425 189.79115,154.704425 C198.456637,154.704425 205.762832,151.476106 211.709735,145.019469 C217.656637,138.562832 220.630088,129.982301 220.630088,119.277876 L220.630088,44.3469027 L243.313274,44.3469027 Z" id="Path"></path>
                    <polygon id="Path" points="363.865487 19.1150442 315.185841 19.1150442 315.185841 170.251327 291.99292 170.251327 291.99292 19.1150442 243.313274 19.1150442 243.313274 0 363.865487 0"></polygon>
                </g>
            </g>
        </g>
    </g>
</svg>